<svg width="42" height="42" viewBox="0 0 42 42" xmlns="http://www.w3.org/2000/svg"><title>icon_cloud</title><path d="M23.507 33.763v-8.191c.73 0 1.463.056 2.181-.022.422-.046 1.02-.203 1.171-.498.147-.287-.074-.885-.31-1.224-1.41-2.022-2.868-4.012-4.32-6.005a5.182 5.182 0 0 0-.687-.763c-.383-.352-.806-.35-1.193-.003a4.58 4.58 0 0 0-.641.704c-1.48 2.034-2.966 4.064-4.407 6.125-.223.32-.435.927-.283 1.16.199.302.755.457 1.177.504.701.079 1.418.022 2.173.022v8.191h-.805c-2.517 0-5.036-.066-7.55.016-3.96.128-7.227-2.99-7.87-6.68-.566-3.251.553-5.865 3.2-7.813.326-.24.434-.421.342-.83-.856-3.814 2.417-7.11 6.22-6.253.505.114.719.017.97-.434 2.24-4.01 6.601-6.051 11.146-5.256 4.173.73 7.55 4.12 8.362 8.453.117.626.313.918.986 1.094 4.01 1.054 6.636 4.69 6.536 8.93-.095 3.995-3.084 7.706-6.937 8.573a8.736 8.736 0 0 1-1.833.192c-2.515.02-5.03.008-7.628.008" fill="#CD333E" fill-rule="evenodd"/></svg>