<svg width="42" height="42" viewBox="0 0 42 42" xmlns="http://www.w3.org/2000/svg"><title>icon_drivers</title><g fill="#CD333E" fill-rule="evenodd"><path d="M21 29.499h-7.272c-1.697 0-1.697 0-1.697 1.564 0 1.183.086 1.262 1.38 1.263h14.756c1.808 0 1.808 0 1.802-1.729-.004-.945-.168-1.097-1.203-1.098H21m-.035-2.817h7.273c1.732 0 1.732 0 1.73-1.615 0-1.112-.145-1.25-1.341-1.25H13.868c-1.84 0-1.84 0-1.837 1.715.002.975.184 1.148 1.237 1.15 2.565.002 5.131 0 7.697 0m.106-22.675v11.8c0 1.467.844 2.304 2.398 2.374.306.013.612.003.918.003H36v.746c0 5.574.001 11.148-.001 16.722 0 1.454-.88 2.335-2.436 2.337-8.376.015-16.753.015-25.13 0-1.554-.002-2.432-.884-2.432-2.34V6.32c0-1.39.852-2.29 2.328-2.3 4.21-.034 8.42-.012 12.742-.012"/><path d="M36 15H24V4c1.18.057 2.09.58 2.858 1.265 2.566 2.292 5.096 4.616 7.632 6.934.837.765 1.298 1.705 1.51 2.801"/></g></svg>