<svg width="42" height="42" viewBox="0 0 42 42" xmlns="http://www.w3.org/2000/svg" xmlns:xlink="http://www.w3.org/1999/xlink"><title>icon_internet</title><defs><path id="a" d="M12.3 9.436H.023V.119H12.3z"/><path id="c" d="M.118.04H14.5v3.542H.118V.04z"/></defs><g fill="none" fill-rule="evenodd"><path d="M32.637 9.471a1 1 0 0 0-.69-.25c-2.153.187-4.221.754-6.266 1.446-.762.258-1.34.55-1.244 1.49a.656.656 0 0 1-.082.394c-.31.48-.075.812.231 1.185 2.168 2.634 3.721 5.622 4.956 8.794.09.231.392.49.63.53.835.141 1.684.427 2.063 1.136.65 1.216 1.559 1.062 2.577.829.261-.06.533-.081.791-.15 2.713-.724 2.208.097 2.397-2.954.008-4.627-1.972-9.243-5.363-12.45m-6.976 18.027c-.28-.084-.406-.137-.537-.16-3.92-.694-7.517-2.165-10.865-4.253-.167-.105-.448-.08-.667-.052a31.6 31.6 0 0 0-1.988.313c-.189.037-.445.134-.519.277-1.544 2.997-2.582 6.144-2.841 9.507-.014.178.042.419.162.54 1.639 1.662 3.525 2.975 5.748 3.855 2.946-4.263 6.663-7.644 11.507-10.027m-3.195-12.643c-1.197.282-2.305.126-3.471-.556-1.14 1.008-2.27 1.983-3.357 2.997-.15.14-.15.48-.126.72.07.685.271 1.367.26 2.047-.007.44.081.699.485.882.582.265 1.163.529 1.735.81a30.632 30.632 0 0 0 7.44 2.556c.909.185 1.785.39 2.24-.675.09-.214.217-.49.146-.675-.295-.78-.57-1.584-1.014-2.29-1.182-1.876-2.44-3.71-3.695-5.545-.11-.161-.458-.315-.643-.271" fill="#CD333E"/><g transform="translate(16.226 29.54)"><mask id="b" fill="#fff"><use xlink:href="#a"/></mask><path d="M10.551.205a26.902 26.902 0 0 0-8.655 6.397C1.251 7.318.658 8.078.023 8.84c.158.111.192.153.232.161 3.807.795 7.517.517 11.106-.96.224-.092.483-.391.502-.612.178-2.089.334-4.18.437-6.274.033-.692-1.093-1.257-1.749-.95" fill="#CD333E" mask="url(#b)"/></g><path d="M9.816 15.556c.12.156.469.196.711.194a19.26 19.26 0 0 0 1.77-.111c.239-.024.53-.056.694-.2a221.243 221.243 0 0 0 3.676-3.31c.119-.107.257-.264.266-.405.032-.516.013-1.035.013-1.757-.026-.027-.145-.238-.327-.337a205.044 205.044 0 0 0-4.784-2.546c-.177-.09-.52-.028-.707.088-1.613.995-2.966 2.275-4.156 3.732-.214.263-.251.467-.047.743.964 1.303 1.904 2.624 2.89 3.91m-.933 6.387c-.63-.936-.642-1.952-.404-3.021.04-.177.065-.434-.021-.556-.938-1.326-1.9-2.633-2.888-3.991-2.403 5.614-2.238 11.091.536 16.537.07-.113.106-.148.114-.189a33.566 33.566 0 0 1 2.671-8.29c.062-.131.067-.38-.008-.49" fill="#CD333E"/><g transform="translate(14.774 4.863)"><mask id="d" fill="#fff"><use xlink:href="#c"/></mask><path d="M4.597 3.142c1.27-.459 2.455-.333 3.608.332.208.12.569.136.817.07 1.568-.42 3.123-.877 4.684-1.319.2-.056.405-.09.794-.177C9.755-.196 5.055-.562.118.961 1.48 1.735 2.76 2.472 4.06 3.184c.126.07.373.017.537-.042" fill="#CD333E" mask="url(#d)"/></g><path d="M32.823 27.613c-.515.475-.962 1.016-1.525 1.438-.29.217-.4.383-.401.707-.003 1.275-.042 2.55-.075 3.826-.008.302-.046.604-.08 1.038 3.195-2.105 5.272-4.737 6.532-7.984-1.343.184-2.576.334-3.798.537-.241.04-.464.263-.653.438" fill="#CD333E"/></g></svg>