<svg width="42" height="42" viewBox="0 0 42 42" xmlns="http://www.w3.org/2000/svg"><title>icon_secure</title><path d="M19.5 22.39a38393.9 38393.9 0 0 1-2.992-2.929l-2.44 2.295 5.455 5.17 8.49-7.96-2.41-2.325-6.103 5.75m1.488-19.183c4.167 4.08 9.201 5.674 14.837 5.638.025.183.057.297.055.41-.064 3.974.06 7.962-.247 11.917-.36 4.638-1.885 8.911-5.17 12.39-2.566 2.716-5.722 4.474-9.208 5.696a.862.862 0 0 1-.53 0c-4.262-1.5-7.988-3.765-10.687-7.494-2.066-2.853-3.074-6.106-3.594-9.54-.66-4.354-.41-8.734-.336-13.109.001-.067.032-.133.066-.266 5.613.026 10.65-1.558 14.814-5.642" fill="#CD333E" fill-rule="evenodd"/></svg>