<svg width="789" height="588" viewBox="0 0 789 588" xmlns="http://www.w3.org/2000/svg" xmlns:xlink="http://www.w3.org/1999/xlink"><title>schemeNumus</title><defs><path id="a" d="M0 0h760v213H0z"/><mask id="e" x="0" y="0" width="760" height="213" fill="#fff"><use xlink:href="#a"/></mask><path id="b" d="M16 16h760v213H16z"/><mask id="f" x="0" y="0" width="760" height="213" fill="#fff"><use xlink:href="#b"/></mask><path id="c" d="M32 31h757v215H32z"/><mask id="g" x="0" y="0" width="757" height="215" fill="#fff"><use xlink:href="#c"/></mask><linearGradient x1="-19.729%" y1="120.94%" x2="90.963%" y2="10.143%" id="h"><stop stop-color="#A4042B" offset="0%"/><stop stop-color="#DE4646" offset="38.718%"/><stop stop-color="#ECA75F" offset="100%"/></linearGradient><rect id="d" x="374" y="77" width="73" height="73" rx="14"/><mask id="i" x="-4" y="-4" width="81" height="81"><path fill="#fff" d="M370 73h81v81h-81z"/><use xlink:href="#d"/></mask><path id="j" d="M64 0H0v46h64V23z"/><linearGradient x1="20.105%" y1="100%" x2="74.001%" y2="-14.258%" id="l"><stop stop-color="#A4042B" offset="0%"/><stop stop-color="#DE4646" offset="50.985%"/><stop stop-color="#ECA75F" offset="100%"/></linearGradient><linearGradient x1="7.725%" y1="100%" x2="75.327%" y2="0%" id="m"><stop stop-color="#A4042B" offset="0%"/><stop stop-color="#DE4646" offset="50.985%"/><stop stop-color="#ECA75F" offset="100%"/></linearGradient><linearGradient x1="25.902%" y1="100%" x2="78.62%" y2="-16.994%" id="n"><stop stop-color="#A4042B" offset="0%"/><stop stop-color="#DE4646" offset="50.985%"/><stop stop-color="#ECA75F" offset="100%"/></linearGradient><linearGradient x1="0%" y1="100%" x2="78.62%" y2="-16.994%" id="o"><stop stop-color="#A4042B" offset="0%"/><stop stop-color="#DE4646" offset="50.985%"/><stop stop-color="#ECA75F" offset="100%"/></linearGradient><linearGradient x1="0%" y1="100%" x2="89.938%" y2="0%" id="p"><stop stop-color="#A4042B" offset="0%"/><stop stop-color="#DE4646" offset="50.985%"/><stop stop-color="#ECA75F" offset="100%"/></linearGradient></defs><g fill="none" fill-rule="evenodd"><use stroke="#FFF" mask="url(#e)" stroke-width="12" fill="#EFEFEF" xlink:href="#a"/><use stroke="#FFF" mask="url(#f)" stroke-width="12" fill="#EFEFEF" xlink:href="#b"/><use stroke="#FFF" mask="url(#g)" stroke-width="12" fill="#F0F0F0" xlink:href="#c"/><path fill="#E0E0E0" d="M38 257h744v41H38z"/><path d="M481.62 323.423C464.638 315.64 443.245 311 420 311c-32.735 0-61.796 9.201-80.038 23.424C330.305 329.11 318.607 326 306 326c-21.122 0-39.694 8.731-50.386 21.928A85.365 85.365 0 0 0 243 347c-26.284 0-48.553 11.798-56.183 28.1-.764-.066-1.536-.1-2.317-.1-14.636 0-26.5 11.864-26.5 26.5 0 13.792 10.537 25.124 24 26.384V428h393v-.013c20.525-.53 37-17.335 37-37.987 0-20.987-17.013-38-38-38-.639 0-1.274.016-1.905.047C560.197 333.716 534.18 321 504 321c-7.795 0-15.312.848-22.38 2.423z" fill="#EFEFEF"/><path d="M641.868 131.73h42.754v-4.584h-42.754v4.584zm3.353-19.865h7.545v-3.056h-7.545v3.056zm0-5.348h7.545v-1.528h-7.545v1.528zm53.984 17.573c1.426 0 2.183 1.063 2.183 2.373 0 .88-.211 1.646-1.693 2.056v3.975h-2.223v-3.932c-.74-.398-1.114-1.188-1.114-2.1 0-1.31 1.42-2.372 2.847-2.372zm12.243-12.635V92H665.3v19.455h19.045v3.355h-27.102V98.709H641.86v16.1H636v26.835h5.86v5.367h13.185v-5.367h37.358v5.367h11.72v-5.367h7.325V114.81h-20.51v-3.355h20.51zM465.42 561.694c-2.708-.5-5.441-.9-8.12-1.526-3.813-.893-7.143-2.827-10.268-5.133-.733-.541-1.496-1.041-2.423-1.683v3.511H441v-9.935h10.159v3.665h-3.213c2.925 3.774 11.951 7.967 20.847 7.26 6.245-.496 12.264-1.67 20.1-9.474l2.588 2.787c-1.316 1.089-2.785 2.18-4.109 3.426-2.084 1.96-4.54 3.283-7.132 4.387a31.971 31.971 0 0 1-10.446 2.508c-.367.025-.728.136-1.092.207h-3.281zm2.204-63c2.977.583 5.999 1 8.92 1.791 3.578.97 6.83 2.699 9.637 5.213.586.526 1.298.909 2.138 1.484v-3.544H492v10.13h-9.966v-3.713h3.22c-2.763-3.73-11.798-8.212-21.138-7.432-6.57.55-11.84 1.651-20.381 9.57L441 509.506c1.424-1.192 2.815-2.553 4.395-3.632 2.27-1.55 4.589-3.087 7.052-4.282 3.37-1.634 7.014-2.44 10.761-2.688.371-.024.737-.138 1.104-.21h3.312z" fill="#3E3E3E"/><path d="M466.37 543.824c1.79.008 1.96-.077 1.854-1.757-.074-1.175.431-1.667 1.45-2.054 2.565-.975 4.033-3.274 3.814-5.806-.195-2.251-1.383-3.856-3.375-4.842-1.346-.667-2.776-1.164-4.133-1.81-.834-.396-1.645-.956-1.386-2.06.233-1 1.076-1.338 1.995-1.245 1.353.139 2.689.446 4.042.61.412.051 1.094.013 1.244-.232 1.42-2.316 1.03-3.206-1.588-3.87-.125-.032-.247-.096-.373-.104-1.07-.066-1.575-.494-1.478-1.69.12-1.482-1.06-1.376-2.064-1.39-.962-.015-1.775.142-1.6 1.391.16 1.15-.246 1.802-1.404 2.216-2.302.821-3.522 2.587-3.635 4.996-.113 2.382 1.244 3.96 3.243 5.004 1.175.614 2.432 1.078 3.675 1.55 1.353.515 2.23 1.49 2.106 2.461-.12.945-1.263 1.805-2.708 1.671-1.515-.14-3.027-.516-4.488-.96-.748-.226-1.078-.185-1.361.555-1.02 2.66-.786 3.143 1.989 3.84.374.094.752.186 1.133.246.89.14 1.326.538 1.3 1.54-.045 1.678.076 1.732 1.749 1.74m19.62-13.179c.029 10.629-8.528 18.944-19.35 18.99-10.763.047-19.548-8.137-19.52-18.95.025-10.638 8.49-18.904 19.416-18.928 10.756-.013 19.424 8.208 19.454 18.888zM140 90v53.2h5.117v3.8h9.934v-3.8h28.898v3.8h9.934v-3.8H199V90h-59zm16.857 17.733h23.881V101.4h-23.88v6.333zm18.262 8.867h4.214v-3.8h-4.214v3.8zm-8.429 0h4.215v-3.8h-4.215v3.8zm-8.428 0h4.214v-3.8h-4.214v3.8zm16.857 7.6h4.214v-3.8h-4.214v3.8zm-8.429 0h4.215v-3.8h-4.215v3.8zm-8.428 0h4.214v-3.8h-4.214v3.8zm16.857 7.6h4.214V128h-4.214v3.8zm-8.429 0h4.215V128h-4.215v3.8zm-8.428 0h4.214V128h-4.214v3.8zm61.82 367.2l-34.493 19.023H185v8.769h4.677v22.216H185v8.185h69.57v-8.185h-5.262v-22.216h5.262v-8.769h.005L220.082 499zm4.673 50.008H238.2v-22.216h-13.446v22.216zm-23.97 0h12.277v-22.216h-12.277v22.216zM185 518.023h.288l-.288-.04v.04zM154.716 515l-25.284 13.944H129v6.428h3.428v16.285H129v6h50.997v-6h-3.857v-16.285h3.857v-6.428H180L154.716 515zm3.425 36.657h9.857v-16.285h-9.857v16.285zm-17.57 0h9v-16.285h-9v16.285zM129 528.944h.211l-.211-.03v.03zM105.665 525L86.33 535.663H86v4.916h2.622v12.453H86v4.588h38.997v-4.588h-2.949v-12.453h2.95v-4.916H125L105.665 525zm2.62 28.032h7.537v-12.453h-7.538v12.453zm-13.437 0h6.882v-12.453h-6.882v12.453zM86 535.663h.162l-.162-.022v.022z" fill="#3E3E3E"/><text font-family="GothamPro-Medium, Gotham Pro" font-size="14" font-weight="400" fill="#3E3E3E"><tspan x="56" y="62">Store</tspan></text><text font-family="GothamPro-Medium, Gotham Pro" font-size="14" font-weight="400" fill="#3E3E3E"><tspan x="56" y="283">Firewall</tspan></text><text font-family="GothamPro-Medium, Gotham Pro" font-size="14" font-weight="400" fill="#3E3E3E"><tspan x="352" y="412">Numus portal</tspan></text><text font-family="GothamPro-Medium, Gotham Pro" font-size="14" font-weight="400" fill="#3E3E3E"><tspan x="129" y="180">Tills/Safes</tspan></text><text font-family="GothamPro-Medium, Gotham Pro" font-size="14" font-weight="400" fill="#3E3E3E"><tspan x="148" y="586">Banks</tspan></text><text font-family="GothamPro-Medium, Gotham Pro" font-size="14" font-weight="400" fill="#3E3E3E"><tspan x="427" y="586">Cash Centre</tspan></text><text font-family="GothamPro-Medium, Gotham Pro" font-size="14" font-weight="400" fill="#3E3E3E"><tspan x="725" y="586">CIT</tspan></text><text font-family="GothamPro-Medium, Gotham Pro" font-size="14" font-weight="400" fill="#3E3E3E"><tspan x="35" y="358">Merchant </tspan> <tspan x="35" y="374">staff</tspan></text><text font-family="GothamPro-Medium, Gotham Pro" font-size="14" font-weight="400" fill="#3E3E3E"><tspan x="677" y="358">Numus </tspan> <tspan x="677" y="374">staff</tspan></text><text font-family="GothamPro-Medium, Gotham Pro" font-size="14" font-weight="400" fill="#3E3E3E"><tspan x="336.139" y="180">Numus Till Controller </tspan> <tspan x="377.908" y="196">(mini-pc)</tspan></text><text font-family="GothamPro-Medium, Gotham Pro" font-size="14" font-weight="400" fill="#3E3E3E"><tspan x="652.294" y="180">POS</tspan></text><use fill="url(#h)" xlink:href="#d"/><use stroke="#FFF" mask="url(#i)" stroke-width="8" xlink:href="#d"/><rect fill="#3E3E3E" x="379" y="82" width="63" height="63" rx="10"/><text font-family="GothamPro-Bold, Gotham Pro" font-size="23" font-weight="bold" fill="#FFF"><tspan x="386" y="122">NTC</tspan></text><path d="M224.866 117H347m-3-6l4 5.553-3.985 6.447M98.078 406H149m-3-6l4 5.553-3.985 6.447m516.863-6H626m3 6l-4-5.553 3.985-6.447m-220.71-88.053V214.1m-4.393 3.194l3.811-2.47 4.425 2.46" stroke="#696969" stroke-width="2"/><path fill="#E0E0E0" d="M392 264h32v7h-32zm0 20h32v7h-32z"/><g stroke-width="2" stroke="#696969"><path d="M734 464H229.336v19"/><path d="M235 480l-5.553 4-6.447-3.985"/></g><path d="M733 464.23v16.8m6-2.03l-5.553 3-6.447-2.988M603.379 115H480.867m3.133 6l-4.336-5.553 4.32-6.447m115.399 0l4.336 5.553L599.4 121M420.979 534H272.867m3.133 6l-4-5.553 3.985-6.447M418 528l4 5.553-3.985 6.447M211 440.988v42.055m6-3.043l-5.553 4.336-6.447-4.32m.224-36.456l5.553-4.336 6.447 4.32" stroke="#696969" stroke-width="2"/><text font-family="GothamPro-Medium, Gotham Pro" font-size="12" font-weight="400" fill="#7C7C7C"><tspan x="232.626" y="84">Transactions and </tspan> <tspan x="234.168" y="98">status messages</tspan></text><g transform="translate(706 508)"><mask id="k" fill="#fff"><use xlink:href="#j"/></mask><path d="M48.84 40.896a3.812 3.812 0 1 1 0-7.624 3.812 3.812 0 0 1 0 7.624zm-14.513-9.95c-1.94.702-1.818.574-1.81 2.648.007 2.125-.013 2.138-2.156 2.13-.393 0-.789.028-1.18-.006-.678-.06-.968-.378-.987-1.062a53.66 53.66 0 0 1-.014-1.966c.004-.541-.229-.819-.78-.942-1.295-.29-2.605-.557-3.857-.986-1.815-.622-1.892-.863-1.389-2.683.18-.652.36-1.304.572-1.946.255-.774.538-.9 1.269-.528a13.81 13.81 0 0 0 4.675 1.407c1.195.142 2.362.039 3.422-.59 1.322-.784 1.637-2.318.609-3.455-.523-.579-1.243-1.024-1.947-1.385-.986-.507-2.068-.827-3.06-1.324-1.048-.526-2.096-1.087-3.046-1.768-3.987-2.862-3.202-9.134 1.046-11.347a13.1 13.1 0 0 1 1.798-.78c.69-.235 1.058-.618.996-1.389-.045-.564-.02-1.136 0-1.703.025-.812.255-1.064 1.06-1.096a22.202 22.202 0 0 1 2.096.016c.774.043.986.283 1.022 1.06.026.59.036 1.18.056 1.769.016.485.264.721.745.839 1.247.304 2.497.61 3.714 1.012.979.324 1.105.676.825 1.645a88.12 88.12 0 0 1-.717 2.38c-.296.93-.533 1.026-1.437.609-1.68-.778-3.444-1.134-5.285-.944a4.263 4.263 0 0 0-1.71.55c-.99.596-1.201 1.88-.401 2.706.576.594 1.318 1.074 2.064 1.448 1.44.724 2.974 1.264 4.402 2.01 2.806 1.467 4.354 3.777 4.303 7.012-.047 2.914-2.028 5.62-4.898 6.66zm-20.293 9.95a3.812 3.812 0 1 1 0-7.624 3.812 3.812 0 0 1 0 7.624zm45.142-19.423L51.97 10.928h-9.824V0H0v38.715h.057l.014.013 5.204.016C6.053 42.874 9.677 46 14.034 46c4.337 0 7.95-3.099 8.75-7.203l17.316.052C40.92 42.928 44.52 46 48.84 46c4.302 0 7.89-3.046 8.73-7.098l6.43.02V23.526l-4.824-2.054z" fill="#3E3E3E" mask="url(#k)"/></g><path d="M717.804 410.237c-.306-3.062-1.842-5.313-4.931-6.348-1.426-.477-2.919-.77-4.39-1.112a.505.505 0 0 0-.258.025 6.864 6.864 0 0 0 1.096-1.069c1.597-1.948 2.258-4.173 2.283-6.636-.143-1.081-.212-2.178-.444-3.241-.544-2.49-2.001-4.241-4.704-4.666a17.064 17.064 0 0 0-4.014-.128c-2.834.234-4.667 1.683-5.307 4.358-.373 1.563-.448 3.22-.443 4.833.008 2.03.813 3.841 2.114 5.449.34.42.718.787 1.123 1.102a.522.522 0 0 0-.265-.027c-1.449.334-2.92.619-4.323 1.087-2.853.951-4.538 2.929-4.89 5.828-.24 1.98-.287 3.983-.445 5.974-.043.543.13 1.001.577 1.271 1.134.685 2.243 1.468 3.474 1.933 3.21 1.212 6.617 1.354 10.151 1.403 2.98-.058 6.077-.215 9.082-1.108 1.513-.45 2.915-1.083 4.133-2.074.509-.414.778-.887.724-1.57-.142-1.76-.168-3.528-.343-5.284z" fill="url(#l)"/><path d="M710.848 413.059c-.383-3.96-2.308-6.873-6.18-8.211-1.787-.618-3.658-.997-5.502-1.44a.614.614 0 0 0-.323.034 8.736 8.736 0 0 0 1.374-1.383c2.001-2.52 2.829-5.399 2.86-8.585-.179-1.398-.265-2.817-.556-4.192-.682-3.222-2.508-5.487-5.896-6.037-1.644-.267-3.367-.306-5.03-.165-3.553.303-5.85 2.177-6.652 5.638-.468 2.022-.562 4.164-.555 6.252.01 2.626 1.019 4.97 2.65 7.048a8.74 8.74 0 0 0 1.406 1.426.635.635 0 0 0-.332-.034c-1.815.431-3.658.8-5.417 1.405-3.577 1.23-5.688 3.789-6.13 7.54-.3 2.562-.36 5.152-.557 7.727-.054.703.163 1.295.723 1.645 1.421.886 2.81 1.899 4.354 2.5 4.023 1.568 8.293 1.751 12.723 1.815 3.735-.076 7.616-.278 11.383-1.433 1.896-.582 3.653-1.4 5.18-2.683.638-.536.976-1.148.907-2.03-.177-2.277-.21-4.566-.43-6.837z" fill="#FFF"/><path d="M707.584 413.106c-.358-3.703-2.158-6.426-5.778-7.677-1.671-.578-3.42-.932-5.145-1.346a.574.574 0 0 0-.302.03 8.169 8.169 0 0 0 1.284-1.292c1.872-2.357 2.646-5.048 2.675-8.027-.167-1.308-.248-2.634-.52-3.92-.638-3.013-2.345-5.13-5.513-5.645-1.537-.25-3.148-.286-4.703-.154-3.322.283-5.47 2.035-6.22 5.272-.437 1.89-.526 3.893-.519 5.845.009 2.456.953 4.647 2.478 6.59.398.508.84.953 1.315 1.334a.593.593 0 0 0-.31-.032c-1.698.403-3.422.748-5.066 1.314-3.344 1.15-5.318 3.542-5.731 7.05-.282 2.395-.337 4.817-.522 7.225-.05.658.153 1.211.677 1.538 1.328.829 2.627 1.775 4.07 2.338 3.763 1.466 7.755 1.637 11.897 1.697a68.833 68.833 0 0 0 4.356-.2c2.1-.177 4.212-.504 6.287-1.14 1.774-.544 3.417-1.31 4.844-2.509.596-.5.912-1.073.848-1.898-.166-2.129-.196-4.269-.402-6.393z" fill="url(#m)"/><path d="M43.703 27.375c-.306-3.061-1.842-5.313-4.931-6.347-1.426-.477-2.919-.77-4.39-1.113a.505.505 0 0 0-.258.026 6.864 6.864 0 0 0 1.096-1.07c1.597-1.948 2.258-4.173 2.283-6.635-.143-1.082-.212-2.178-.444-3.241-.544-2.491-2-4.242-4.704-4.667a17.064 17.064 0 0 0-4.013-.127c-2.835.234-4.668 1.682-5.307 4.358-.374 1.563-.45 3.22-.444 4.832.008 2.03.813 3.842 2.115 5.45.34.42.717.786 1.122 1.101a.522.522 0 0 0-.265-.026c-1.449.333-2.92.619-4.323 1.087-2.853.95-4.537 2.928-4.89 5.828-.24 1.98-.287 3.982-.445 5.973-.043.544.13 1.002.577 1.272 1.134.685 2.243 1.468 3.474 1.933 3.21 1.211 6.617 1.353 10.151 1.402 2.98-.058 6.077-.214 9.082-1.107 1.513-.45 2.915-1.083 4.133-2.074.509-.414.778-.887.724-1.57-.142-1.76-.168-3.529-.343-5.285z" fill="url(#n)" transform="translate(25.048 384)"/><path d="M83.562 414.059c-.384-3.96-2.309-6.873-6.18-8.211-1.787-.618-3.659-.997-5.502-1.44a.614.614 0 0 0-.324.034 8.736 8.736 0 0 0 1.374-1.383c2.002-2.52 2.83-5.399 2.86-8.585-.179-1.398-.264-2.817-.556-4.192-.682-3.222-2.507-5.487-5.895-6.037-1.645-.267-3.368-.306-5.03-.165-3.554.303-5.851 2.177-6.652 5.638-.468 2.022-.563 4.164-.556 6.252.01 2.626 1.02 4.97 2.65 7.048a8.74 8.74 0 0 0 1.407 1.426.635.635 0 0 0-.332-.034c-1.816.431-3.659.8-5.418 1.405-3.576 1.23-5.688 3.789-6.129 7.54-.301 2.562-.36 5.152-.558 7.727-.054.703.164 1.295.724 1.645 1.42.886 2.81 1.899 4.353 2.5 4.024 1.568 8.294 1.751 12.723 1.815 3.735-.076 7.616-.278 11.383-1.433 1.897-.582 3.654-1.4 5.18-2.683.638-.536.976-1.148.907-2.03-.177-2.277-.21-4.566-.43-6.837z" fill="#FFF"/><path d="M32.584 29.934c-.358-3.703-2.158-6.426-5.778-7.678-1.671-.577-3.42-.932-5.145-1.345a.574.574 0 0 0-.302.03 8.169 8.169 0 0 0 1.284-1.292c1.872-2.357 2.646-5.049 2.675-8.027-.167-1.308-.248-2.635-.52-3.92-.638-3.013-2.345-5.13-5.513-5.645-1.537-.25-3.148-.286-4.703-.154-3.322.283-5.47 2.035-6.22 5.272-.437 1.89-.526 3.893-.519 5.845.009 2.455.953 4.646 2.478 6.59.398.508.84.952 1.315 1.333a.593.593 0 0 0-.31-.031c-1.698.403-3.422.748-5.066 1.314-3.344 1.15-5.318 3.542-5.731 7.05C.247 31.67.192 34.093.007 36.5c-.05.657.153 1.211.677 1.538 1.328.828 2.627 1.775 4.07 2.337 3.763 1.466 7.755 1.638 11.897 1.697 3.492-.07 7.121-.26 10.643-1.34 1.774-.543 3.417-1.31 4.844-2.508.596-.501.912-1.073.848-1.899-.166-2.128-.196-4.268-.402-6.392z" fill="url(#o)" transform="translate(52.006 384)"/><path d="M469 464.23v16.8m6-2.03l-5.553 3-6.447-3.988m230-14.242v-19.795M687 446l5.553-3 6.447 2.988" stroke="#696969" stroke-width="2"/><path d="M407.47 369.287a1.628 1.628 0 0 1-.552 1.126 11.5 11.5 0 0 1-7.615 2.879c-6.349 0-11.513-5.165-11.513-11.513s5.164-11.513 11.513-11.513h15.98a1.64 1.64 0 0 1 1.639 1.639 1.64 1.64 0 0 1-1.639 1.638h-15.98c-4.542 0-8.237 3.695-8.237 8.236 0 4.542 3.695 8.236 8.237 8.236a8.226 8.226 0 0 0 5.447-2.058 1.64 1.64 0 0 1 2.72 1.33M407.5 325c17.37 0 31.5 14.13 31.5 31.5 0 17.37-14.13 31.5-31.5 31.5-17.37 0-31.5-14.13-31.5-31.5 0-17.37 14.13-31.5 31.5-31.5zm0 61.66c16.63 0 30.16-13.53 30.16-30.16 0-16.63-13.53-30.16-30.16-30.16-16.63 0-30.16 13.53-30.16 30.16 0 16.63 13.53 30.16 30.16 30.16zm-3.637-19.708a2.982 2.982 0 0 1 4.204.262c.527.596.79 1.362.74 2.156a2.959 2.959 0 0 1-1.002 2.048 12.84 12.84 0 0 1-8.502 3.214c-7.088 0-12.854-5.765-12.854-12.853 0-7.087 5.766-12.853 12.854-12.853h15.98a2.982 2.982 0 0 1 2.98 2.979 2.982 2.982 0 0 1-2.98 2.978h-15.98a6.904 6.904 0 0 0-6.896 6.896 6.904 6.904 0 0 0 6.896 6.896 6.887 6.887 0 0 0 4.56-1.723zm11.627-28.139c7.088 0 12.854 5.766 12.854 12.853 0 7.088-5.766 12.854-12.854 12.854h-15.98a2.982 2.982 0 0 1-2.98-2.98 2.982 2.982 0 0 1 2.98-2.978h15.98a6.904 6.904 0 0 0 6.896-6.896 6.904 6.904 0 0 0-6.896-6.895 6.887 6.887 0 0 0-4.56 1.723 2.982 2.982 0 0 1-4.205-.262 2.959 2.959 0 0 1-.739-2.157 2.959 2.959 0 0 1 1.002-2.048 12.84 12.84 0 0 1 8.502-3.214zm0 24.366c6.349 0 11.513-5.165 11.513-11.513s-5.164-11.512-11.513-11.512a11.5 11.5 0 0 0-7.615 2.878c-.328.29-.524.69-.551 1.127-.028.436.117.858.406 1.186a1.64 1.64 0 0 0 2.313.144 8.227 8.227 0 0 1 5.447-2.059c4.542 0 8.237 3.695 8.237 8.236 0 4.542-3.695 8.237-8.237 8.237h-15.98a1.64 1.64 0 0 0-1.639 1.638 1.64 1.64 0 0 0 1.638 1.638h15.981z" fill="url(#p)"/></g></svg>