<?xml version="1.0" encoding="UTF-8" standalone="no"?>
<svg
   xmlns:dc="http://purl.org/dc/elements/1.1/"
   xmlns:cc="http://creativecommons.org/ns#"
   xmlns:rdf="http://www.w3.org/1999/02/22-rdf-syntax-ns#"
   xmlns:svg="http://www.w3.org/2000/svg"
   xmlns="http://www.w3.org/2000/svg"
   viewBox="0 0 1133.8533 793.70667"
   height="793.70667"
   width="1133.8533"
   xml:space="preserve"
   id="svg2"
   version="1.1"><metadata
     id="metadata8"><rdf:RDF><cc:Work
         rdf:about=""><dc:format>image/svg+xml</dc:format><dc:type
           rdf:resource="http://purl.org/dc/dcmitype/StillImage" /></cc:Work></rdf:RDF></metadata><defs
     id="defs6"><clipPath
       id="clipPath26"
       clipPathUnits="userSpaceOnUse"><path
         id="path24"
         d="M 0,595.28 H 850.39 V 0 H 0 Z" /></clipPath></defs><g
     transform="matrix(1.3333333,0,0,-1.3333333,0,793.70667)"
     id="g10"><g
       transform="translate(406.0274,334.2845)"
       id="g12"><path
         id="path14"
         style="fill:#231f20;fill-opacity:1;fill-rule:nonzero;stroke:none"
         d="M 0,0 -38.44,-44.963 V 0 h -4.125 v -56.139 l 20.843,24.36 24.243,-42.784 h 4.65 0.007 L -18.872,-28.447 5.467,0 Z" /></g><g
       transform="translate(416.9839,257.5269)"
       id="g16"><path
         id="path18"
         style="fill:#231f20;fill-opacity:1;fill-rule:nonzero;stroke:none"
         d="M 0,0 H -9.461 L -32.985,41.527 -55.569,15.13 v 63.894 h 8.309 V 37.635 l 35.384,41.389 H -0.903 L -27.242,48.239 Z M -14.129,83.913 -42.372,50.876 V 83.913 H -60.458 V 1.897 L -33.802,33.053 -12.31,-4.888 H 8.375 l -29.678,52.55 31.015,36.251 z" /></g><g
       id="g20"><g
         clip-path="url(#clipPath26)"
         id="g22"><g
           transform="translate(248.7485,334.3317)"
           id="g28"><path
             id="path30"
             style="fill:#231f20;fill-opacity:1;fill-rule:nonzero;stroke:none"
             d="m 0,0 c -0.332,0.001 -18.646,0.001 -31.859,0.001 h -0.699 v -4.125 h 32.496 c 10.452,-0.094 18.954,-8.661 18.954,-19.098 0,-10.436 -8.474,-19.004 -18.886,-19.098 -0.403,-10e-4 -30.24,-0.002 -30.305,-0.002 h -2.062 v -32.275 h 4.125 v 28.15 h 2.791 c 8.49,0 25.168,0.001 25.47,0.002 12.678,0.114 22.992,10.532 22.992,23.223 C 23.017,-10.531 12.694,-0.113 0,0" /></g><g
           transform="translate(248.7752,285.7946)"
           id="g32"><path
             id="path34"
             style="fill:#231f20;fill-opacity:1;fill-rule:nonzero;stroke:none"
             d="m 0,0 c -0.098,-0.001 -5.411,-0.001 -11.564,-0.001 h -14.607 v -28.151 h -8.309 v 36.46 h 4.155 c 0.064,0 29.898,0 30.281,10e-4 9.274,0.083 16.818,7.712 16.818,17.006 0,9.294 -7.559,16.923 -16.855,17.006 -0.325,0 -29.509,0 -34.596,0 v 8.309 c 5.113,0 34.469,0 34.674,0 C 13.829,50.505 25.083,39.149 25.083,25.315 25.083,11.481 13.83,0.124 0,0 m 0.048,55.517 c -0.061,0 0.81,0.002 -35.424,0.002 h -4.19 V 37.433 L -0.12,37.432 c 6.619,-0.06 12.005,-5.495 12.005,-12.117 0,-6.623 -5.36,-12.059 -11.943,-12.118 -0.378,-10e-4 -30.203,-10e-4 -30.267,-10e-4 h -9.043 V -33.04 h 18.085 v 28.15 c 7.491,0 21.228,10e-4 21.325,0.002 16.503,0.148 29.929,13.697 29.929,30.203 0,16.506 -13.419,30.055 -29.923,30.202" /></g><g
           transform="translate(535.4094,259.7349)"
           id="g36"><path
             id="path38"
             style="fill:#231f20;fill-opacity:1;fill-rule:nonzero;stroke:none"
             d="m 0,0 v -0.046 h 4.125 v 69.743 0.655 h 21.506 0.044 v 4.125 h -47.614 v -0.655 -3.47 l 21.939,0 z" /></g><g
           transform="translate(563.1759,327.9952)"
           id="g40"><path
             id="path42"
             style="fill:#231f20;fill-opacity:1;fill-rule:nonzero;stroke:none"
             d="M 0,0 H -0.044 -21.55 v -0.655 -69.743 h -8.309 V -70.352 0 H -51.797 V 7.653 8.309 L 0,8.309 Z M 4.888,13.197 H -56.685 V -4.888 h 21.938 v -70.398 h 18.086 V -4.888 H 4.888 Z" /></g><g
           transform="translate(442.9841,333.4407)"
           id="g44"><path
             id="path46"
             style="fill:#231f20;fill-opacity:1;fill-rule:nonzero;stroke:none"
             d="M 0,0 V -3.309 H 47.613 V 0 0.816 H 0 Z" /></g><g
           transform="translate(440.8929,335.5318)"
           id="g48"><path
             id="path50"
             style="fill:#231f20;fill-opacity:1;fill-rule:nonzero;stroke:none"
             d="M 0,0 V 0.816 H 51.796 V 0 -7.493 H 0 Z M -4.889,-12.381 H 56.685 V 5.704 H -4.889 Z" /></g><path
           id="path52"
           style="fill:#231f20;fill-opacity:1;fill-rule:nonzero;stroke:none"
           d="m 442.984,259.687 h 47.613 v 4.125 h -47.613 z" /><path
           id="path54"
           style="fill:#231f20;fill-opacity:1;fill-rule:nonzero;stroke:none"
           d="m 440.893,265.903 h 51.796 v -8.309 h -51.796 z m -4.889,-13.196 h 61.574 v 18.085 h -61.574 z" /><path
           id="path56"
           style="fill:#231f20;fill-opacity:1;fill-rule:nonzero;stroke:none"
           d="m 442.984,295.112 h 47.613 v 4.125 h -47.613 z" /><path
           id="path58"
           style="fill:#231f20;fill-opacity:1;fill-rule:nonzero;stroke:none"
           d="m 440.893,301.329 h 51.796 v -8.309 h -51.796 z m -4.889,-13.197 h 61.574 v 18.086 h -61.574 z" /><g
           transform="translate(333.4515,257.5891)"
           id="g60"><path
             id="path62"
             style="fill:#231f20;fill-opacity:1;fill-rule:nonzero;stroke:none"
             d="M 0,0 -23.417,65.526 -43.858,8.337 h 3.256 1.922 20.1 l 3,-8.302 h -28.693 l 0.007,-0.037 h -2.584 -8.853 l 28.209,78.789 h 8.155 L 8.855,0.042 Z M -30.936,83.676 -62.645,-4.891 h 54.027 l -6.467,18.122 h -21.844 l 13.512,37.773 19.979,-55.909 19.224,0.091 -31.683,88.49 z" /></g><g
           transform="translate(307.4308,334.2845)"
           id="g64"><path
             id="path66"
             style="fill:#231f20;fill-opacity:1;fill-rule:nonzero;stroke:none"
             d="m 0,0 -26.71,-74.606 4.407,0.002 2.223,0.001 27.637,0.011 -1.428,4.071 h -24.75 -2.221 L 2.605,-4.955 27.493,-74.597 31.91,-74.575 5.209,0 Z" /></g><g
           transform="translate(625.1558,257.5016)"
           id="g68"><path
             id="path70"
             style="fill:#231f20;fill-opacity:1;fill-rule:nonzero;stroke:none"
             d="M 0,0 -23.417,65.526 -43.858,8.337 h 3.256 1.922 20.1 l 3,-8.301 h -28.693 l 0.007,-0.038 h -11.437 l 28.209,78.789 h 8.155 L 8.855,0.042 Z M -30.936,83.676 -62.645,-4.891 h 54.027 l -6.467,18.122 h -21.844 l 13.512,37.773 19.979,-55.909 19.224,0.091 -31.683,88.49 z" /></g><g
           transform="translate(599.1351,334.1972)"
           id="g72"><path
             id="path74"
             style="fill:#231f20;fill-opacity:1;fill-rule:nonzero;stroke:none"
             d="m 0,0 -26.71,-74.606 34.267,0.014 -1.428,4.071 H -20.842 L 2.605,-4.955 27.493,-74.597 31.91,-74.576 5.209,0 Z" /></g></g></g></g></svg>