<svg width="149" height="149" viewBox="0 0 149 149" xmlns="http://www.w3.org/2000/svg"><title>Combined Shape Copy 9</title><defs><linearGradient x1="10.128%" y1="78.851%" x2="77.837%" y2="17.581%" id="a"><stop stop-color="#A4042B" offset="0%"/><stop stop-color="#DE4646" offset="50.985%"/><stop stop-color="#ECA75F" offset="100%"/></linearGradient></defs><path d="M74.427 104.742a3.85 3.85 0 0 1-1.303 2.664 27.198 27.198 0 0 1-18.012 6.808c-15.013 0-27.228-12.214-27.228-27.228 0-15.014 12.215-27.23 27.228-27.23h37.796a3.88 3.88 0 0 1 3.875 3.876 3.88 3.88 0 0 1-3.875 3.874H55.112c-10.74 0-19.479 8.739-19.479 19.48 0 10.74 8.739 19.48 19.48 19.48 4.75 0 9.326-1.73 12.883-4.87a3.88 3.88 0 0 1 5.47.341 3.848 3.848 0 0 1 .961 2.805M74.5 0C115.58 0 149 33.42 149 74.5S115.58 149 74.5 149 0 115.58 0 74.5 33.42 0 74.5 0zm0 145.83c39.331 0 71.33-31.999 71.33-71.33s-32-71.33-71.33-71.33-71.33 32-71.33 71.33 31.999 71.33 71.33 71.33zm-8.602-46.611a7.053 7.053 0 0 1 9.944.62 6.998 6.998 0 0 1 1.749 5.1 6.998 6.998 0 0 1-2.37 4.844 30.367 30.367 0 0 1-20.109 7.602c-16.762 0-30.398-13.637-30.398-30.4 0-16.761 13.636-30.398 30.398-30.398h37.796a7.053 7.053 0 0 1 7.045 7.045 7.053 7.053 0 0 1-7.045 7.045H55.112c-8.992 0-16.309 7.316-16.309 16.309 0 8.993 7.317 16.309 16.31 16.309 3.977 0 7.807-1.448 10.785-4.076zm27.5-66.55c16.762 0 30.399 13.637 30.399 30.4 0 16.761-13.637 30.398-30.399 30.398H55.602a7.053 7.053 0 0 1-7.045-7.045 7.053 7.053 0 0 1 7.045-7.045h37.796c8.993 0 16.31-7.316 16.31-16.309 0-8.993-7.317-16.309-16.31-16.309a16.289 16.289 0 0 0-10.786 4.076 7.053 7.053 0 0 1-9.944-.62 6.998 6.998 0 0 1-1.749-5.101 6.998 6.998 0 0 1 2.37-4.844 30.368 30.368 0 0 1 20.11-7.6zm0 57.628c15.014 0 27.229-12.215 27.229-27.229S108.412 35.84 93.398 35.84a27.2 27.2 0 0 0-18.012 6.808 3.849 3.849 0 0 0-1.303 2.663 3.848 3.848 0 0 0 .962 2.806 3.88 3.88 0 0 0 5.469.341 19.457 19.457 0 0 1 12.884-4.87c10.74 0 19.48 8.74 19.48 19.48s-8.74 19.48-19.48 19.48H55.602a3.88 3.88 0 0 0-3.875 3.874 3.88 3.88 0 0 0 3.875 3.875h37.796z" fill="url(#a)" fill-rule="evenodd"/></svg>