<svg width="137" height="26" viewBox="0 0 137 26" xmlns="http://www.w3.org/2000/svg"><title>Combined Shape Copy 8</title><defs><linearGradient x1="0%" y1="65.834%" y2="57.761%" id="a"><stop stop-color="#A4042B" offset="0%"/><stop stop-color="#DE4646" offset="50.985%"/><stop stop-color="#ECA75F" offset="100%"/></linearGradient></defs><path d="M9.909.876c5.464 0 9.908 4.397 9.908 9.8v12.491a1.807 1.807 0 1 1-3.613 0v-12.49c0-3.412-2.824-6.187-6.295-6.187-3.472 0-6.296 2.775-6.296 6.187v12.49a1.807 1.807 0 0 1-3.613 0v-12.49c0-5.404 4.445-9.8 9.909-9.8zm67.523.139c5.464 0 9.909 4.372 9.909 9.747v12.405a1.807 1.807 0 1 1-3.614 0V10.762c0-3.382-2.824-6.134-6.295-6.134s-6.295 2.752-6.295 6.134v12.405a1.807 1.807 0 0 1-3.614 0V10.762c0-3.382-2.824-6.134-6.295-6.134s-6.295 2.752-6.295 6.134v12.405a1.807 1.807 0 0 1-3.614 0V10.762c0-5.375 4.445-9.747 9.909-9.747a9.95 9.95 0 0 1 8.102 4.146 9.95 9.95 0 0 1 8.102-4.146zm-33.889 0c.998 0 1.807.809 1.807 1.807v12.405c0 5.375-4.445 9.747-9.909 9.747s-9.909-4.372-9.909-9.747V2.822a1.807 1.807 0 1 1 3.614 0v12.405c0 3.382 2.824 6.134 6.295 6.134s6.295-2.752 6.295-6.134V2.822c0-.998.81-1.807 1.807-1.807zm67.69 0c.998 0 1.807.809 1.807 1.807v12.405c0 5.375-4.445 9.747-9.909 9.747-5.463 0-9.908-4.372-9.908-9.747V2.822a1.807 1.807 0 1 1 3.613 0v12.405c0 3.382 2.824 6.134 6.295 6.134s6.296-2.752 6.296-6.134V2.822c0-.998.809-1.807 1.806-1.807zm25.647 15.63c.512 2.355-.692 4.747-2.117 5.867-.577.544-2.9 2.494-6.563 2.494-2.337 0-5.217-.794-8.537-3.25a1.807 1.807 0 0 1 2.15-2.905c2.832 2.096 5.453 2.9 7.792 2.39.326-.071.624-.163.893-.266 1.052-.403 1.507-.731 1.855-1.083.375-.38.644-.714.841-1.189.16-.386.253-.84.155-1.29-.283-1.3-2.194-2.41-5.243-3.046-1.87-.39-4.066-1.009-5.106-1.438-2.405-.993-3.87-3.93-3.266-6.547.594-2.57 2.959-5.372 7.814-5.526 2.414-.078 5.302.872 7.027 2.307l.05.044.824.737a1.807 1.807 0 0 1-2.412 2.691l-.795-.713c-1.059-.865-3.058-1.507-4.58-1.455-3.434.11-4.226 1.944-4.407 2.728-.201.872.366 2.08 1.124 2.394.728.3 2.642.86 4.465 1.24 3.235.676 7.256 2.233 8.036 5.815z" fill="url(#a)" fill-rule="evenodd"/></svg>