<svg width="151" height="97" viewBox="0 0 151 97" xmlns="http://www.w3.org/2000/svg"><title>White_Logo</title><path d="M10.921 71.027c6.022 0 10.922 4.702 10.922 10.482v13.358c0 1.067-.892 1.933-1.992 1.933s-1.991-.866-1.991-1.933V81.51c0-3.65-3.113-6.618-6.939-6.618S3.983 77.86 3.983 81.51v13.358c0 1.067-.892 1.933-1.992 1.933S0 95.934 0 94.867V81.51c0-5.78 4.9-10.482 10.921-10.482zm74.424.148c6.022 0 10.921 4.676 10.921 10.424v13.268c0 1.068-.891 1.933-1.991 1.933s-1.992-.865-1.992-1.933V81.6c0-3.617-3.112-6.56-6.938-6.56-3.826 0-6.939 2.943-6.939 6.56v13.268c0 1.068-.891 1.933-1.991 1.933s-1.991-.865-1.991-1.933V81.6c0-3.617-3.113-6.56-6.94-6.56-3.825 0-6.938 2.943-6.938 6.56v13.268c0 1.068-.891 1.933-1.991 1.933s-1.991-.865-1.991-1.933V81.6c0-5.748 4.899-10.424 10.92-10.424 3.688 0 6.952 1.755 8.93 4.434 1.98-2.679 5.243-4.434 8.93-4.434zm-37.352 0c1.1 0 1.991.865 1.991 1.932v13.268c0 5.748-4.9 10.425-10.921 10.425-6.022 0-10.921-4.677-10.921-10.425V73.107c0-1.067.891-1.932 1.99-1.932 1.1 0 1.992.865 1.992 1.932v13.268c0 3.617 3.113 6.56 6.939 6.56s6.939-2.943 6.939-6.56V73.107c0-1.067.891-1.932 1.99-1.932zm74.607 0c1.1 0 1.992.865 1.992 1.932v13.268c0 5.748-4.9 10.425-10.922 10.425s-10.921-4.677-10.921-10.425V73.107c0-1.067.891-1.932 1.991-1.932s1.992.865 1.992 1.932v13.268c0 3.617 3.112 6.56 6.938 6.56 3.826 0 6.939-2.943 6.939-6.56V73.107c0-1.067.892-1.932 1.991-1.932zm28.267 16.716c.565 2.52-.762 5.077-2.332 6.275-.636.583-3.198 2.667-7.235 2.667-2.575 0-5.75-.848-9.409-3.476a1.895 1.895 0 0 1-.415-2.703c.654-.857 1.9-1.038 2.785-.403 3.122 2.242 6.01 3.101 8.589 2.556.359-.076.687-.174.984-.285 1.16-.43 1.66-.781 2.044-1.158.413-.406.71-.763.927-1.27.177-.414.279-.9.171-1.381-.312-1.39-2.418-2.577-5.779-3.258-2.062-.417-4.481-1.078-5.628-1.538-2.65-1.062-4.265-4.203-3.6-7.002.656-2.75 3.262-5.745 8.613-5.91 2.66-.083 5.844.933 7.745 2.467l.056.047.908.789c.819.712.887 1.934.153 2.729a2.034 2.034 0 0 1-2.811.149l-.877-.762c-1.167-.926-3.37-1.613-5.048-1.557-3.785.117-4.658 2.08-4.858 2.918-.222.933.404 2.225 1.24 2.56.802.322 2.911.92 4.92 1.327 3.567.722 7.998 2.387 8.857 6.219zM76.72 35.123a1.277 1.277 0 0 1-.45.893 9.566 9.566 0 0 1-6.225 2.284c-5.188 0-9.41-4.096-9.41-9.131s4.222-9.13 9.41-9.13h13.062c.738 0 1.339.582 1.339 1.299 0 .716-.601 1.299-1.34 1.299h-13.06c-3.712 0-6.732 2.93-6.732 6.532s3.02 6.532 6.731 6.532c1.642 0 3.223-.58 4.453-1.633a1.37 1.37 0 0 1 1.89.115c.236.26.354.594.332.94M76.745 0c14.196 0 25.745 11.207 25.745 24.982 0 13.775-11.549 24.982-25.745 24.982C62.55 49.964 51 38.757 51 24.982 51 11.207 62.55 0 76.745 0zm0 48.901c13.592 0 24.65-10.73 24.65-23.919S90.337 1.063 76.745 1.063c-13.592 0-24.65 10.73-24.65 23.92 0 13.188 11.058 23.918 24.65 23.918zm-2.972-15.63c1.006-.862 2.548-.768 3.436.208.43.473.645 1.08.604 1.71a2.321 2.321 0 0 1-.818 1.625 10.68 10.68 0 0 1-6.95 2.549c-5.792 0-10.505-4.573-10.505-10.194 0-5.62 4.713-10.194 10.505-10.194h13.062c1.342 0 2.434 1.06 2.434 2.363 0 1.302-1.092 2.362-2.434 2.362H70.045c-3.107 0-5.636 2.453-5.636 5.469 0 3.016 2.529 5.469 5.636 5.469a5.729 5.729 0 0 0 3.728-1.367zm9.503-22.316c5.792 0 10.505 4.573 10.505 10.194 0 5.62-4.713 10.193-10.505 10.193H70.214c-1.342 0-2.434-1.06-2.434-2.362 0-1.303 1.092-2.362 2.434-2.362h13.062c3.108 0 5.636-2.454 5.636-5.47 0-3.015-2.528-5.468-5.636-5.468a5.73 5.73 0 0 0-3.728 1.366c-1.006.862-2.547.769-3.436-.208a2.304 2.304 0 0 1-.604-1.71c.04-.63.331-1.206.819-1.624a10.681 10.681 0 0 1 6.949-2.549zm0 19.324c5.188 0 9.41-4.096 9.41-9.13 0-5.035-4.222-9.13-9.41-9.13-2.295 0-4.505.81-6.224 2.282a1.277 1.277 0 0 0-.118 1.834 1.37 1.37 0 0 0 1.89.114 6.844 6.844 0 0 1 4.452-1.632c3.712 0 6.731 2.93 6.731 6.532 0 3.601-3.02 6.532-6.731 6.532H70.214c-.738 0-1.339.583-1.339 1.299s.601 1.3 1.34 1.3h13.06z" fill="#FFF" fill-rule="evenodd"/></svg>