<svg width="53" height="53" viewBox="0 0 53 53" xmlns="http://www.w3.org/2000/svg" xmlns:xlink="http://www.w3.org/1999/xlink"><title>icon_handle</title><defs><path id="a" d="M12.497 0h12.497v30H0V0h12.497z"/></defs><g fill="none" fill-rule="evenodd"><ellipse cx="26.469" cy="26.469" rx="26.469" ry="26.469" fill="#3E3E3E"/><g transform="translate(14 13)"><mask id="b" fill="#fff"><use xlink:href="#a"/></mask><path d="M22.782 11.727c-.002.184.03.457-.102.496-2.11.611-3.613 1.923-4.19 4.118H9.273c-.284-.731-.436-1.556-.814-2.2-.79-1.35-2.347-1.852-3.8-1.34-.358.126-.523.143-.844-.056-.226-.14-.717-.277-.972-.312-.644-.09-.676-.046-.655-.679.049-1.45.006-3.294.029-4.746.002-.175.013-.476.15-.518 2.094-.637 3.584-2.1 4.147-4.295h11.814c.302 1.22.625 1.717 1.167 2.381 1.011 1.24 1.71 1.457 2.745 1.774.465.143.573.075.564.536-.028 1.511-.001 3.33-.023 4.84M18.51 27.354c-.304.347-.601.502-1.073.5a855.91 855.91 0 0 0-9.947-.009c-.404.002-.674-.13-.933-.437-1.292-1.529-1.965-3.296-1.976-5.318a666.91 666.91 0 0 1 0-5.832c.002-.864.46-1.39 1.16-1.371.675.019 1.11.536 1.117 1.365.01 1.14-.004 2.278.005 3.417.007.906.364 1.284 1.238 1.346 1.906.134 3.18 1.45 3.29 3.398.036.642.44 1.056 1.054 1.08.713.027 1.23-.373 1.246-1.08.03-1.318-.366-2.5-1.302-3.439-.476-.477-.951-.951-1.503-1.321-.53-.355-1.16-.628-1.898-.872h11.393c.112 2.927.322 6.068-1.87 8.573M24.064 0H.935C.228.244-.004.788 0 1.549.022 6.786.011 12.03.012 17.268c0 1.038.354 1.405 1.379 1.427.134.002.27.016.402 0 .391-.05.482.143.48.513a82.721 82.721 0 0 0 .032 3.589 9.02 9.02 0 0 0 1.421 4.586c.559.87 1.332 1.553 2.032 2.322.145.16.387.295.585.295h12.313c.335-.244.7-.419 1-.704 2.172-2.065 3.135-4.625 3.08-7.637-.018-.959-.003-1.907-.003-2.978.397 0 .753.025 1.105.002.766-.05 1.147-.457 1.148-1.236.003-5.375-.004-10.76.008-16.135.002-.701-.362-1.068-.93-1.312" fill="#FFF" mask="url(#b)"/></g><path d="M29.687 19.1a4.099 4.099 0 0 0-.467-.242 4.952 4.952 0 0 0-4.047 0 4.04 4.04 0 0 0-.455.236c-2.12 1.284-2.16 4.405-.088 5.778 1.681 1.114 3.44 1.11 5.123.007 2.078-1.362 2.05-4.489-.066-5.778" fill="#FFF"/></g></svg>