<svg width="51" height="51" viewBox="0 0 51 51" xmlns="http://www.w3.org/2000/svg"><title>icon_cash</title><g fill="none" fill-rule="evenodd"><ellipse fill="#3E3E3E" cx="25.284" cy="25.284" rx="25.284" ry="25.284"/><path d="M24.565 43c-1.394-.264-2.8-.475-4.179-.806-1.961-.471-3.675-1.492-5.282-2.71-.378-.286-.77-.55-1.247-.889v1.854H12v-5.245h5.227v1.935h-1.653c1.505 1.992 6.149 4.206 10.726 3.833 3.214-.262 6.31-.882 10.342-5.002l1.332 1.471c-.678.575-1.433 1.152-2.114 1.81-1.073 1.034-2.337 1.733-3.67 2.316a16.105 16.105 0 0 1-5.375 1.324c-.189.013-.375.071-.562.109h-1.688zm1.008-36c1.518.31 3.058.53 4.548.95a11.85 11.85 0 0 1 4.912 2.768c.3.279.662.482 1.09.787v-1.88H38V15h-5.08v-1.97h1.64c-1.408-1.98-6.014-4.359-10.775-3.945-3.35.292-6.036.877-10.39 5.08L12 12.739c.726-.633 1.435-1.356 2.24-1.928 1.158-.823 2.34-1.638 3.596-2.273 1.717-.867 3.575-1.294 5.486-1.426.189-.013.375-.074.563-.112h1.688zm-.668 24.931c.921.005 1.008-.04.953-.927-.038-.62.222-.88.747-1.085 1.32-.514 2.075-1.728 1.962-3.065-.1-1.19-.712-2.037-1.737-2.557-.692-.352-1.428-.615-2.126-.955-.429-.21-.846-.505-.713-1.089.12-.527.554-.706 1.026-.657.697.074 1.384.236 2.08.323.212.026.563.006.64-.123.73-1.223.53-1.693-.817-2.044-.064-.017-.127-.05-.192-.054-.55-.036-.81-.261-.76-.893.061-.783-.545-.726-1.062-.734-.495-.008-.914.075-.824.735.083.607-.126.951-.722 1.17-1.185.433-1.812 1.366-1.87 2.638-.058 1.258.64 2.09 1.668 2.642.605.324 1.252.57 1.891.819.696.27 1.147.786 1.084 1.299-.062.499-.65.953-1.393.882-.78-.074-1.558-.272-2.31-.507-.385-.12-.554-.098-.7.293-.525 1.405-.405 1.66 1.023 2.028.193.05.387.098.583.13.459.073.683.284.67.813-.024.886.038.914.899.918M24.99 15c5.534-.007 9.994 4.334 10.009 9.973.015 5.612-4.388 10.002-9.956 10.027-5.538.024-10.058-4.297-10.044-10.006.014-5.617 4.368-9.981 9.99-9.994" fill="#FFF"/></g></svg>