<svg width="40" height="40" viewBox="0 0 40 40" xmlns="http://www.w3.org/2000/svg"><title>Experience</title><path d="M20 7C12.82 7 7 12.82 7 20s5.82 13 13 13 13-5.821 13-13c0-7.18-5.82-13-13-13zm6.865 18.968l-1.04 1.042c-.187.185-.73.3-.748.3a12.284 12.284 0 0 1-8.793-3.594 12.3 12.3 0 0 1-3.597-8.823c0-.001.12-.53.305-.714l1.041-1.04c.381-.383 1.113-.556 1.625-.385l.22.073c.51.172 1.047.737 1.188 1.257l.524 1.922c.14.522-.05 1.265-.43 1.646l-.695.695a7.383 7.383 0 0 0 5.19 5.192l.695-.695c.383-.383 1.125-.573 1.646-.432l1.922.525c.52.144 1.085.677 1.257 1.188l.073.222c.17.51-.002 1.242-.383 1.621z" fill="#FFF"/></svg>