<svg width="40" height="40" viewBox="0 0 40 40" xmlns="http://www.w3.org/2000/svg"><title>LifeTime</title><g fill="#FFF"><path d="M30.214 9.267H28.25V7.866c0-1.03-.8-1.866-1.786-1.866a1.841 1.841 0 0 0-1.857 1.866v1.4h-9.214v-1.4c0-1.03-.8-1.866-1.786-1.866a1.841 1.841 0 0 0-1.857 1.866v1.4H9.786c-.987 0-1.786.836-1.786 1.867v20.001C8 32.164 8.8 33 9.786 33h20.428C31.2 33 32 32.165 32 31.134V11.133c0-1.03-.8-1.866-1.786-1.866zM30 31H10V15h20v16z"/><path d="M12.31 22h3.38a.31.31 0 0 0 .31-.31v-3.38a.31.31 0 0 0-.31-.31h-3.38a.31.31 0 0 0-.31.31v3.38c0 .17.14.31.31.31zm6 0h3.38a.31.31 0 0 0 .31-.31v-3.38a.31.31 0 0 0-.31-.31h-3.38a.31.31 0 0 0-.31.31v3.38c0 .17.14.31.31.31zm6 0h3.38a.31.31 0 0 0 .31-.31v-3.38a.31.31 0 0 0-.31-.31h-3.38a.31.31 0 0 0-.31.31v3.38c0 .17.14.31.31.31zm-12 6h3.38a.31.31 0 0 0 .31-.31v-3.38a.31.31 0 0 0-.31-.31h-3.38a.31.31 0 0 0-.31.31v3.38c0 .17.14.31.31.31zm6 0h3.38a.31.31 0 0 0 .31-.31v-3.38a.31.31 0 0 0-.31-.31h-3.38a.31.31 0 0 0-.31.31v3.38c0 .17.14.31.31.31zm6 0h3.38a.31.31 0 0 0 .31-.31v-3.38a.31.31 0 0 0-.31-.31h-3.38a.31.31 0 0 0-.31.31v3.38c0 .17.14.31.31.31z"/></g></svg>