<svg id="Layer_1" xmlns="http://www.w3.org/2000/svg" viewBox="0 0 208 208"><style>.st0{fill:#393a56}.st1{fill:#fff}.st2{fill:#ac2724}.st3{fill:#febc11}</style><circle id="XMLID_2338_" class="st0" cx="104" cy="104.5" r="102.5"/><g id="XMLID_1759_"><path id="XMLID_2189_" class="st1" d="M51.6 60.5h104.7c-3.5-4.1-7.4-7.8-11.7-11H63.3c-4.3 3.2-8.2 6.9-11.7 11z"/><path id="XMLID_2190_" class="st1" d="M64.8 160.5h78.5a71 71 0 0 0 12.2-11h-103c3.6 4.1 7.7 7.8 12.3 11z"/><path id="XMLID_2191_" class="st1" d="M43 135.5h122c1.8-3.5 3.3-7.2 4.5-11H38.6c1.1 3.8 2.7 7.5 4.4 11z"/><path id="XMLID_2192_" class="st1" d="M38.3 85.5h130.5c.3 0 .6 0 .9.1-1.1-3.8-2.5-7.5-4.2-11.1h-123c-1.7 3.5-3.1 7.2-4.2 11z"/><path id="XMLID_2193_" class="st1" d="M35.6 104.5c0 2 .1 4 .3 6h133c1.2 0 2.3.4 3.2 1 .2-2.3.4-4.6.4-7 0-1.7-.1-3.3-.2-5H35.8c-.1 1.7-.2 3.3-.2 5z"/><path id="XMLID_2194_" class="st2" d="M104 172.9c14.6 0 28.1-4.6 39.2-12.4H64.8c11.1 7.8 24.6 12.4 39.2 12.4z"/><path id="XMLID_2195_" class="st2" d="M52.5 149.5h103c3.7-4.2 6.9-8.9 9.5-14H43c2.6 5.1 5.8 9.8 9.5 14z"/><path id="XMLID_2196_" class="st2" d="M35.9 110.5c.4 4.8 1.3 9.5 2.7 14h130.8c1.3-4.2 2.2-8.5 2.6-13-.9-.6-2-1-3.2-1H35.9z"/><path id="XMLID_2197_" class="st2" d="M38.3 85.5c-1.3 4.5-2.1 9.2-2.5 14h136.4c-.3-4.8-1.2-9.5-2.5-13.9-.3 0-.6-.1-.9-.1H38.3z"/><path id="XMLID_2198_" class="st2" d="M42.5 74.5h122.9c-2.5-5-5.5-9.7-9.1-14H51.6c-3.5 4.3-6.6 9-9.1 14z"/><path id="XMLID_2199_" class="st2" d="M63.3 49.5h81.3c-11.4-8.4-25.4-13.4-40.7-13.4s-29.2 5-40.6 13.4z"/></g><g id="XMLID_2249_"><path id="XMLID_2317_" class="st1" d="M31 148.4c-.1.3-.1.7 0 1 .1.3.2.7.4 1 .2.3.5.5.8.7.3.1.7.1 1-.1.3-.2.5-.5.5-.8 0-.4 0-.9-.2-1.5-.1-.4-.1-.7-.2-1.1v-1.2c.1-.4.2-.8.4-1.2.2-.4.5-.7.9-1 .5-.3 1.1-.5 1.6-.6.5-.1 1.1 0 1.5.2.5.2 1 .5 1.4.8.4.4.8.8 1.1 1.3.5.7.8 1.5 1 2.2.2.8.2 1.4.2 2l-2.6-.3c.1-.4 0-.8-.1-1.3-.1-.4-.2-.8-.5-1.2-.2-.3-.5-.6-.8-.7-.3-.1-.6-.1-1 .1-.3.2-.5.5-.5.9s0 .9.2 1.6c.1.4.1.8.2 1.2 0 .4 0 .8-.1 1.1-.1.4-.2.7-.4 1-.2.3-.5.6-.9.9-.5.4-1.1.5-1.6.6-.5 0-1.1-.1-1.5-.3-.5-.2-.9-.5-1.3-.9s-.8-.8-1-1.2c-.4-.7-.7-1.3-.9-2-.2-.6-.2-1.2-.1-1.8l2.5.6z"/><path id="XMLID_2315_" class="st1" d="M34.6 136.2l-10.9 4.4-2.6-6.5 2.2-.9 1.5 3.6 2.1-.9-1.3-3.3 2-.8 1.3 3.3 2.3-.9-1.6-3.8 2.2-.9 2.8 6.7z"/><path id="XMLID_2312_" class="st1" d="M28.8 117l-4.2 2.8.2.9 4.6-.9.6 3.1-11.5 2.2-.9-4.6c-.3-1.4-.2-2.5.3-3.4.4-.9 1.2-1.4 2.4-1.6.4-.1.8-.1 1.2 0 .4.1.7.2 1 .3s.5.3.7.5.4.4.5.6l4.7-3.4.4 3.5zm-7.9 1.6c-.3.1-.5.2-.7.3-.2.1-.3.3-.4.5-.1.2-.1.4-.1.6 0 .2 0 .4.1.6l.2 1 2.9-.6-.2-1c-.1-.5-.3-.8-.6-1.1-.3-.3-.7-.4-1.2-.3z"/><path id="XMLID_2310_" class="st1" d="M27.8 100.8l-.1 4.2-11.8 3.2.1-3.7 8.6-1.8-8.5-2.2.1-3.6 11.6 3.9z"/><path id="XMLID_2308_" class="st1" d="M28.9 91.1l-11.5-2.3.7-3.2 11.5 2.3-.7 3.2z"/><path id="XMLID_2306_" class="st1" d="M34.1 73.4c0 .7-.1 1.5-.5 2.5-.3.8-.7 1.5-1.3 2-.5.5-1.1.9-1.8 1.2-.7.3-1.4.4-2.2.4-.8 0-1.6-.2-2.5-.5-.9-.3-1.6-.8-2.2-1.3-.6-.5-1.1-1.1-1.4-1.8-.3-.7-.5-1.4-.5-2.1s.1-1.5.4-2.3c.4-.9.8-1.6 1.3-2.1s1-.9 1.6-1.1l1.2 2.3c-.3.1-.6.3-.9.5-.3.2-.5.6-.6 1-.2.4-.2.8-.2 1.2.1.4.2.7.4 1 .2.3.5.6.9.9s.8.5 1.3.7c.5.2.9.3 1.4.4.5.1.9 0 1.3 0s.7-.3 1-.5c.3-.2.5-.6.7-1 .2-.4.2-.8.2-1.2 0-.4-.1-.7-.3-1l2.4-1c.1.5.3 1.1.3 1.8z"/><path id="XMLID_2287_" class="st1" d="M37.8 66.5l-9.9-6.3 3.8-5.9 2 1.3-2.1 3.3 1.9 1.2 1.9-3 1.8 1.2-1.9 3 2.1 1.4 2.2-3.5 2 1.3-3.8 6z"/><path id="XMLID_2284_" class="st1" d="M56.5 37.4c.6.7 1 1.4 1.2 2.1.3.7.4 1.4.3 2.1-.1.7-.3 1.4-.7 2.1s-1 1.4-1.8 2l-3.2 2.6-7.4-9.1 3.2-2.6c.8-.7 1.6-1.1 2.4-1.4s1.5-.4 2.2-.3c.7.1 1.4.3 2 .7.6.5 1.2 1.1 1.8 1.8zm-2.6 2.1c-.7-.9-1.5-1.5-2.3-1.6-.8-.2-1.5 0-2.1.5l-.6.5 4.5 5.5.6-.5c.6-.5.9-1.1.9-1.9.1-.8-.3-1.6-1-2.5z"/><path id="XMLID_2281_" class="st1" d="M72.8 28.3c.4.8.7 1.7.8 2.5.1.8.1 1.6-.1 2.3s-.5 1.3-1 1.9c-.5.6-1.1 1.1-1.9 1.4-.8.4-1.5.6-2.3.6-.8 0-1.5-.1-2.1-.4-.7-.3-1.3-.7-1.9-1.3-.6-.6-1.1-1.3-1.5-2.1-.4-.8-.7-1.6-.8-2.4-.1-.8-.1-1.5.1-2.2.2-.7.5-1.3 1-1.9.5-.6 1.1-1 1.9-1.4.8-.4 1.5-.6 2.3-.6.8 0 1.5.1 2.1.3.7.3 1.3.7 1.9 1.3s1.1 1.2 1.5 2zm-3 1.5c-.2-.5-.5-.9-.8-1.2-.3-.3-.6-.6-.9-.8-.3-.2-.6-.3-1-.4-.3 0-.7 0-1 .2-.3.2-.6.4-.8.7-.2.3-.3.6-.3 1s0 .8.1 1.2c.1.4.3.9.5 1.3.2.5.5.9.8 1.2.3.4.6.6.9.8.3.2.6.3 1 .4.3 0 .7 0 1-.2.3-.2.6-.4.7-.7.2-.3.3-.6.3-1s0-.8-.1-1.2c0-.4-.2-.9-.4-1.3z"/><path id="XMLID_2279_" class="st1" d="M89.2 29.6c-.6.3-1.3.6-2.2.8-.9.2-1.7.3-2.5.1-.8-.1-1.5-.4-2.1-.8-.6-.4-1.1-.9-1.6-1.6-.4-.7-.8-1.4-1-2.3-.2-.9-.3-1.7-.2-2.5.1-.8.3-1.5.7-2.2.4-.6.8-1.2 1.4-1.6.6-.5 1.3-.8 2.1-1 1-.2 1.8-.3 2.5-.2.7.1 1.3.3 1.8.6l-1.3 2.3c-.6-.4-1.3-.5-2.2-.3-.4.1-.8.3-1.1.6-.3.3-.5.6-.6 1-.1.4-.2.8-.2 1.2 0 .5.1.9.2 1.4.1.5.3.9.5 1.3s.4.7.7 1c.3.3.6.5 1 .6.4.1.8.1 1.2 0 .5-.1.8-.3 1.1-.5l-.4-2.1-1.5.4-.5-2.2 4.3-1 1.5 6.1c-.5.3-1 .6-1.6.9z"/><path id="XMLID_2276_" class="st1" d="M113.2 28.8l-.4-2.2-3.3-.3-.8 2.1-3.3-.3 4.6-11.4 4.1.4 2.4 12-3.3-.3zm-1.4-9.4l-1.8 4.9 2.5.2-.7-5.1z"/><path id="XMLID_2274_" class="st1" d="M129.7 32.5c-.7.1-1.5 0-2.5-.3-.8-.2-1.5-.6-2.1-1.1-.6-.5-1-1.1-1.3-1.7s-.5-1.4-.5-2.2c0-.8.1-1.6.3-2.5.3-.9.6-1.6 1.1-2.3.5-.7 1-1.2 1.7-1.5.6-.4 1.3-.6 2.1-.7s1.5 0 2.3.2c.9.3 1.7.7 2.2 1.1.5.5.9.9 1.2 1.5l-2.3 1.3c-.2-.3-.4-.6-.6-.8-.2-.2-.6-.4-1-.6-.4-.1-.8-.1-1.2-.1-.4.1-.7.3-1 .5s-.6.6-.8 1c-.2.4-.4.8-.6 1.3-.1.5-.2 1-.3 1.4s0 .9.1 1.3.3.7.6 1c.3.3.6.5 1 .6.4.1.8.2 1.2.1.4-.1.7-.2.9-.4l1.2 2.3c-.4.3-1 .5-1.7.6z"/><path id="XMLID_2272_" class="st1" d="M145.3 29.4l-4.4 8.4-2.9-1.5 4.4-8.4-2.4-1.2 1.1-2 7.6 4-1.1 2-2.3-1.3z"/><path id="XMLID_2266_" class="st1" d="M159.5 52.2l2-4.7-.7-.7-3.3 3.3-2.2-2.3 8.4-8.3 3.3 3.3c1 1 1.5 2 1.7 3 .1 1-.2 1.9-1.1 2.7-.3.3-.6.5-1 .7-.3.2-.7.2-1 .3-.3 0-.6 0-.9-.1-.3-.1-.5-.2-.7-.3l-2 5.5-2.5-2.4zm5.6-5.8c.2-.2.3-.4.4-.6.1-.2.1-.4 0-.6 0-.2-.1-.4-.2-.5-.1-.2-.2-.3-.4-.5l-.7-.7-2.1 2.1.7.7c.3.3.7.5 1.1.6.4 0 .8-.1 1.2-.5z"/><path id="XMLID_2263_" class="st1" d="M165.8 59.8l9.8-6.5 3.9 5.9-2 1.3-2.1-3.2-1.9 1.3 2 3-1.8 1.2-2-3-2.1 1.4 2.3 3.5-2 1.3-4.1-6.2z"/><path id="XMLID_2261_" class="st1" d="M175.9 78.9c-.4-.5-.8-1.2-1.1-2.1-.3-.9-.5-1.7-.5-2.4 0-.8.2-1.5.5-2.2s.8-1.3 1.4-1.8c.6-.5 1.3-1 2.2-1.3.9-.3 1.7-.5 2.5-.6s1.6.1 2.2.3c.7.3 1.3.6 1.8 1.2.5.5 1 1.2 1.3 2 .4.9.6 1.7.6 2.5 0 .7-.1 1.3-.4 1.8l-2.5-.9c.3-.7.3-1.4 0-2.2-.2-.4-.4-.7-.7-1s-.7-.4-1-.5c-.4-.1-.8-.1-1.3 0-.4.1-.9.2-1.4.4-.5.2-.9.4-1.3.7-.4.3-.7.5-.9.9-.2.3-.4.7-.4 1s0 .8.2 1.2c.2.5.4.8.7 1l2-.8-.6-1.5 2.1-.9 1.7 4.1-5.8 2.3c-.5-.2-.9-.6-1.3-1.2z"/><path id="XMLID_2259_" class="st1" d="M178.3 87.4l11.5-2.4.7 3.2-11.5 2.5-.7-3.3z"/><path id="XMLID_2257_" class="st1" d="M189.2 103.8c.2-.3.4-.5.5-.9.1-.3.2-.7.2-1 0-.4-.1-.7-.3-1-.2-.3-.5-.4-.9-.4s-.6.2-.8.5c-.2.3-.4.8-.6 1.4-.1.3-.3.7-.4 1.1-.2.4-.4.7-.6 1-.3.3-.6.6-.9.8s-.8.3-1.3.3c-.6 0-1.2-.1-1.7-.3-.5-.2-.9-.5-1.2-1-.3-.4-.6-.9-.8-1.4-.2-.5-.3-1.1-.3-1.7 0-.9.1-1.7.3-2.4.2-.7.5-1.3.9-1.8l2.1 1.6c-.3.3-.5.7-.6 1.1-.1.4-.2.8-.2 1.3 0 .4.1.7.4 1 .2.3.5.4.9.4s.7-.2.9-.5c.2-.3.4-.8.7-1.5.1-.4.3-.8.5-1.1.2-.4.4-.7.6-1 .3-.3.6-.5.9-.7.3-.2.8-.3 1.3-.3.7 0 1.2.1 1.7.3.5.2.9.6 1.2 1 .3.4.6.9.7 1.4.2.5.3 1.1.3 1.6 0 .8 0 1.5-.2 2.2-.2.6-.5 1.2-.8 1.6l-2.5-1.6z"/><path id="XMLID_2255_" class="st1" d="M188.6 118.3l-9.4-1.3.5-3.2 9.4 1.3.4-2.6 2.2.3-1.2 8.5-2.2-.3.3-2.7z"/><path id="XMLID_2252_" class="st1" d="M175.4 131.3l5.1-.3.3-.9-4.4-1.5 1-3 11.1 3.9-1.5 4.4c-.5 1.3-1.1 2.3-1.9 2.8-.8.5-1.8.6-2.9.2-.4-.1-.8-.3-1-.6-.3-.2-.5-.5-.7-.7-.2-.3-.3-.5-.3-.8-.1-.3-.1-.5-.1-.8l-5.8.6 1.1-3.3zm7.7 2.5c.3.1.5.1.7.1.2 0 .4-.1.6-.2.2-.1.3-.3.4-.4.1-.2.2-.4.2-.5l.3-1-2.8-1-.3.9c-.2.4-.2.9-.1 1.3.2.3.5.6 1 .8z"/><path id="XMLID_2250_" class="st1" d="M172.3 147.2l-3.6-2.2 1.7-2.8 3.6 2.2 8.3.7-1.8 3.1-5.1-1 3.3 4-1.8 3-4.6-7z"/></g><path id="XMLID_2335_" class="st3" d="M201.4 113.2c.1-.9.1-1.8.2-2.7 1.2-.2 2.1-1.3 2.2-2.5 0-1.2-.8-2.4-2-2.7v-3c1.2-.8 2-1.3 1.9-2.5-.1-1.2-1-2.3-2.2-2.5l-.3-3.3c1.1-.4 1.9-1.5 1.7-2.7-.2-1.2-1.2-2.1-2.4-2.2-.2-1-.4-2.1-.6-3.1 1.1-.5 1.8-1.6 1.5-2.8-.3-1.2-1.4-2-2.6-2-.3-1-.5-2-.8-3.1 1.1-.5 1.6-1.8 1.3-3-.4-1.2-1.5-1.9-2.7-1.7-.3-1-.7-2-1.1-3 1-.6 1.5-1.9 1-3.1-.5-1.1-1.7-1.8-2.9-1.5-.4-1-.9-1.9-1.3-2.9 1-.7 1.3-2 .8-3.1-.6-1.1-1.8-1.6-3-1.3-.5-.9-1-1.9-1.5-2.8.9-.8 1.2-2.1.5-3.2-.6-1.1-2-1.5-3.1-1-.6-.9-1.2-1.8-1.8-2.6.9-.9 1-2.2.3-3.2s-2.1-1.3-3.2-.7c-.6-.8-1.3-1.7-2-2.5.8-.9.8-2.3 0-3.2-.8-.9-2.2-1.1-3.2-.5-.7-.8-1.4-1.5-2.2-2.3.7-1 .6-2.4-.3-3.2-.9-.9-2.3-.9-3.2-.2-.8-.7-1.6-1.4-2.3-2.1.6-1 .4-2.4-.5-3.2-1-.8-2.3-.7-3.2 0-.8-.7-1.7-1.3-2.5-1.9.5-1.1.2-2.4-.8-3.1-1-.7-2.4-.6-3.2.3-.9-.6-1.8-1.2-2.7-1.7.4-1.1 0-2.4-1.1-3.1-1.1-.6-2.4-.4-3.2.6-.9-.5-1.9-1-2.8-1.5.3-1.2-.2-2.4-1.3-2.9s-2.4-.2-3.1.8c-1-.4-1.9-.8-2.9-1.2.2-1.2-.4-2.4-1.6-2.8-1.2-.4-2.4 0-3 1.1-1-.3-2-.7-3-1 .1-1.2-.6-2.3-1.8-2.7-1.2-.3-2.4.2-2.9 1.3-1-.3-2.1-.5-3.1-.7 0-1.2-.8-2.3-2-2.5-1.2-.2-2.4.4-2.8 1.6-1-.2-2.1-.3-3.1-.5-.1-1.2-1-2.2-2.2-2.3-1.2-.1-2.3.6-2.7 1.8-1-.1-2.1-.2-3.2-.2C109.3 6 108.3 5 107 5c-1.3 0-2.3.8-2.5 2h-3.2c-.2-1.2-1.3-2.1-2.6-2-1.3.1-2.3 1-2.4 2.2-1.1.1-2.1.2-3.1.3-.4-1.1-1.5-1.9-2.7-1.7-1.2.2-2.1 1.2-2.2 2.4-1 .2-2.1.4-3.1.6-.4-1.1-1.6-1.8-2.8-1.5-1.2.3-2 1.4-2 2.6-1 .3-2.1.5-3.1.8-.5-1.1-1.8-1.6-3-1.3-.1 0-.2 0-.2.1H74c-1.1.4-1.8 1.5-1.6 2.7-1 .3-2 .7-3 1.1-.6-.9-1.8-1.4-2.9-1-1.2.4-1.8 1.6-1.6 2.8-1 .4-2 .9-2.9 1.3-.8-.9-2-1.1-3.1-.6-1 .6-1.5 1.7-1.2 2.8-1 .5-1.9 1-2.8 1.6-.8-.8-2-1.1-3-.5-1.1.6-1.6 1.9-1.1 3.1-.9.6-1.8 1.2-2.6 1.8-.9-.8-2.2-1-3.2-.3s-1.3 2.1-.7 3.2c-.9.7-1.7 1.4-2.6 2.1-.9-.9-2.2-.9-3.1-.1-.9.8-1.1 2.2-.5 3.2-.8.7-1.5 1.4-2.3 2.2-1-.7-2.4-.6-3.2.3-.9.9-.9 2.3-.2 3.2-.7.8-1.4 1.5-2.1 2.3-1-.6-2.4-.4-3.2.5-.8 1-.8 2.3 0 3.2-.7.8-1.3 1.7-1.9 2.5-1.1-.5-2.4-.2-3.1.8-.7 1-.5 2.4.3 3.2-.6.9-1.2 1.8-1.7 2.7-1.1-.4-2.4 0-3.1 1.1-.6 1.1-.4 2.4.6 3.2-.5.9-1 1.8-1.5 2.8-1.2-.2-2.4 1.2-3 1.2-.5.9-.2 2.5.9 3.2-.4 1-.9 2-1.3 3-1.2-.2-2.4.4-2.8 1.6-.4 1.2 0 2.4 1.1 3-.3 1-.7 2-1 3-1.2-.1-2.3.6-2.7 1.8-.3 1.2.2 2.4 1.3 2.9-.2.6-.4 1.6-.7 2.7-1.2 0-2.3.8-2.5 2-.2 1.2.4 2.4 1.6 2.8-.2 1-.3 2.1-.5 3.1-1.2.1-2.2 1-2.3 2.2-.1 1.2.6 2.3 1.8 2.7-.1 1.1-.2 2.2-.2 3.3-1.2.2-1.9 1.3-2 2.5 0 1.2 1.2 2.5 2.2 2.7v.1c0 .9-.1 1.9-.1 2.8-1.2.3-2.1 1.4-2 2.7.1 1.2 1 2.4 2.2 2.5.1.9.1 1.8.2 2.8-1.1.4-1.9 1.5-1.7 2.7.2 1.2 1.2 2.1 2.4 2.2.2 1 .4 2.1.6 3.1-1.1.5-1.8 1.6-1.5 2.8.2 1.2 1.3 2 2.4 2h.1l.9 3.3c-1.1.7-1.7 3.2-1.3 3.2.3 1 1.3 1.6 2.4 1.6.1 0 .3-.1.4-.1.3.9.7 1.9 1 2.8-1 .6-1.5 1.9-1 3.1.4 1 1.3 1.6 2.3 1.6.2 0 .4 0 .5-.1.4 1 .9 1.9 1.3 2.9-1 .7-1.3 2-.8 3.1.4.9 1.3 1.4 2.2 1.4.2 0 .5-.1.7-.1.5.9 1 1.9 1.5 2.8-.9.8-1.2 2.1-.5 3.2.5.8 1.3 1.2 2.1 1.2.3 0 .6-.1.9-.2.6.9 1.2 1.8 1.8 2.6-.9.9-1 2.2-.2 3.2.5.7 1.2 1 2 1 .4 0 .8-.1 1.1-.3.6.8 1.3 1.7 2 2.5-.8.9-.8 2.3 0 3.2.5.6 1.2.9 1.9.9.5 0 .9-.1 1.3-.4.7.8 1.4 1.5 2.2 2.3-.7 1-.6 2.4.3 3.2.5.5 1.1.7 1.8.7.5 0 1.1-.2 1.5-.5.8.7 1.5 1.4 2.3 2.1-.6 1-.4 2.4.6 3.2.5.4 1 .6 1.6.6.6 0 1.2-.2 1.6-.6.8.7 1.7 1.3 2.5 1.9-.5 1.1-.2 2.4.8 3.1.4.3.9.5 1.4.5.7 0 1.3-.3 1.8-.8.9.6 1.8 1.2 2.7 1.7-.4 1.1 0 2.4 1.1 3.1.4.2.8.3 1.2.3.7 0 1.4-.3 1.9-.9.9.5 1.9 1 2.8 1.5-.4 1.2.2 2.8 1.3 2.8.3 0 .7.4 1.1.4.8 0 1.6-.3 2.1-1 .9.4 1.9.8 2.8 1.2-.2 1.2.4 2.4 1.6 2.8.3.1.6.2.9.2.9 0 1.7-.5 2.2-1.2 1 .3 2 .7 3 1-.1 1.2.6 2.3 1.8 2.7.2.1.5.1.7.1 1 0 1.8-.5 2.2-1.4 1 .3 2 .5 3.1.7 0 1.2.8 2.3 2 2.5h.5c1 0 2-.6 2.3-1.6 1 .2 2.1.3 3.1.5.1 1.2 1 2.2 2.2 2.3h.3c1.1 0 2.1-.7 2.4-1.8 1 .1 2.1.2 3.2.2.1 1.2 1.1 2.3 2.4 2.3h.1c1.2 0 2.3-1 2.5-2.2h3.1c.2 1.2 1.2 2.2 2.5 2.2h.1c1.3 0 2.3-1.2 2.4-2.5 1.1-.1 2.1-.2 3.1-.3.3 1 1.3 1.7 2.4 1.7h.3c1.2-.2 2.1-1.2 2.2-2.4 1-.2 2.1-.4 3.1-.6.4.9 1.3 1.6 2.3 1.6h.5c1.2-.3 2-1.4 1.9-2.6 1-.3 2-.5 3.1-.8.4.8 1.3 1.4 2.2 1.4.2 0 .5 0 .7-.1 1.2-.4 1.9-1.5 1.7-2.7 1-.3 2-.7 3-1.1.5.8 1.4 1.2 2.3 1.2.3 0 1-.1 1-.2.9-.5 1.6-1.7 1.4-2.9.9-.4 1.9-.8 2.8-1.3.5.7 1.2 1 2 1 .4 0 .8-.1 1.1-.3 1.1-.6 1.6-1.8 1.3-3 .9-.5 1.9-1 2.8-1.5.5.6 1.2.9 1.9.9.4 0 .9-.1 1.3-.4 1.1-.6 1.5-2 1-3.1.9-.6 1.8-1.2 2.6-1.8.5.5 1.1.7 1.7.7.5 0 1-.2 1.5-.5 1-.7 1.3-2.1.7-3.2.8-.6 1.7-1.3 2.5-2 .5.4 1 .6 1.6.6.6 0 1.2-.2 1.6-.6.9-.8 1.1-2.2.5-3.2.8-.7 1.5-1.4 2.3-2.2.4.3.9.5 1.4.5.7 0 1.3-.2 1.8-.8.9-.9.9-2.3.2-3.2.7-.8 1.4-1.6 2.1-2.3.4.2.8.4 1.3.4.7 0 1.4-.3 1.9-.9.8-1 .8-2.3-.1-3.2.7-.8 1.3-1.7 1.9-2.5.3.2.7.2 1.1.2.8 0 1.6-.4 2-1.1.7-1 .6-2.4-.3-3.2.6-.9 1.2-1.8 1.7-2.7.3.1.6.2.9.2.9 0 1.7-.5 2.2-1.2.6-1.1.4-2.4-.6-3.2.5-.9 1-1.9 1.5-2.8.2.1.5.1.7.1.9 0 1.8-.5 2.3-1.4.5-1.1.2-2.4-.8-3.1.4-1 .8-1.9 1.2-2.9.2 0 .3.1.5.1 1 0 2-.6 2.3-1.6.4-1.2 0-2.4-1.1-3 .3-1 .7-2 1-3h.3c1.1 0 2.1-.7 2.4-1.8.3-1.2-.2-2.4-1.3-2.9.3-1 .5-2 .7-3.1h.1c1.2 0 2.2-.8 2.4-2 .2-1.2-.4-2.4-1.6-2.8.2-1 .3-2.1.5-3.1 1.2-.1 2.2-1 2.3-2.2.3-1.3-.4-2.4-1.6-2.7zM104 199.3c-52.3 0-94.8-42.5-94.8-94.8 0-34.1 18.1-64.1 45.3-80.8l.1-.1c2-1.2 4.1-2.4 6.2-3.5.3 0 .5-.1.8-.3.2-.1.4-.2.5-.4 2-1 4.1-1.9 6.2-2.8.1 0 .2 0 .2-.1.2-.1.3-.1.4-.2C79.8 12 91.6 9.6 104 9.6c52.3 0 94.8 42.5 94.8 94.8 0 52.4-42.5 94.9-94.8 94.9z"/><g id="XMLID_2340_"><path id="XMLID_2341_" class="st1" d="M107.5 184l-2.8-5.9-3 5.7-6.5.8 4.6 4.7-1.2 6.4 5.8-2.9 5.7 3.1-1-6.4 4.8-4.5z"/><path id="XMLID_2342_" class="st1" d="M132.8 178.7l-3.6-3.9-.9 5.2-4.8 2.2 4.6 2.5.6 5.2 3.8-3.6 5.2 1-2.3-4.7 2.7-4.6z"/><path id="XMLID_2343_" class="st1" d="M81.3 175.3l-4.1 3.4-5.1-1.5 2 4.9-3 4.4 5.3-.3 3.2 4.2 1.4-5.1 4.9-1.8-4.4-2.9z"/><path id="XMLID_2344_" class="st1" d="M60.5 166.1l-3.8 2.1-3.9-2 .8 4.3-3.1 3.1 4.3.6 2 3.9 1.9-3.9 4.3-.7-3.1-3.1z"/><path id="XMLID_2345_" class="st1" d="M155.4 170.4l.3-4.4-3.7 2.4-4.1-1.6 1.2 4.2-2.8 3.4 4.4.1 2.3 3.8 1.6-4.1 4.2-1.1z"/></g><path id="XMLID_1786_" class="st0" d="M156.2 81.3c1.1-5.7-1.4-8.8-7.3-8.5-3.5.2-7.1 1-10.5 2-7.1 2-14 2.2-19.9-2.8-6.7-5.7-14.4-7.3-22.8-6-4.7.7-9.2 2-13.8 3-14.5 3.3-23.7 13-31.1 25-.9 1.5-1.8 4.9-1.8 4.9l-1 5.5c-1.3 6.9-4 13.5-8.1 19.2-.1.1-.2.3-.3.4 6.5 22.1 24.1 39.5 46.3 45.7 2.5-6.2 5.3-12.2 7.7-18.4 4.2-10.6 9.7-20.4 17.7-28.7 2-2 4.7-3.5 7.4-4.6 8.2-3.5 16.6-6.5 24.7-10.2 4.8-2.2 8.3-6.1 9.7-11.4 1.3-5 2.2-10.1 3.1-15.1z"/><path id="XMLID_1782_" class="st1" d="M104 34.6c-38.5 0-69.9 31.4-69.9 69.9 0 38.5 31.4 69.9 69.9 69.9s69.9-31.4 69.9-69.9c0-38.5-31.4-69.9-69.9-69.9zm-63.6 90.7c.2-.3.4-.5.6-.8 3.4-4.7 6-10.1 7.5-15.9 2.4 11.8 11.7 30.9 17.8 31.4 3.5.3 7.1-.4 11.6-6 2.6-3.2 3.2-4 5.2-8.4 1.2-2.8 2.3-6.6 2.1-8.7-.1-1.2-1.3-1.1-1.6.2-.2.8-.6 1.8-1.1 3.3-1.5 4.6-6 9.9-7.9 11.7-2.4 2.3-6.2 5.6-11.8-.5-7-7.6-13.8-27.1-10.2-37.3-.2.3-.6 1-1.1 2 .2-.5.4-1 .6-1.4 8.7-14 18-21.5 30.2-24.2 1.5-.3 2.9-.7 4.4-1 3.1-.7 6.2-1.5 9.4-2 8.4-1.3 15.5.6 21.6 5.7 7.3 6.1 15.6 4.7 21.2 3.1 3.1-.9 6.7-1.8 10.2-2 2.4-.1 4.1.4 5 1.4.9 1.1 1.2 2.9.7 5.3l-.3 1.6c-.8 4.4-1.7 9-2.8 13.4-1.2 4.6-4.4 8.3-8.9 10.4-4.6 2.1-9.4 4-14 5.9-3.5 1.4-7.1 2.8-10.6 4.4-2.3 1-5.6 2.6-7.9 5-7.4 7.7-13.3 17.2-18 29.2-1.3 3.2-2.6 6.4-4 9.5-1.2 2.7-2.4 5.5-3.5 8.3-21-6.7-37.6-23-44.4-43.6zm63.6 46.1c-5.7 0-11.2-.7-16.4-2 1.1-2.7 2.2-5.4 3.3-8 1.3-3.1 2.7-6.4 4-9.6 4.6-11.6 10.2-20.8 17.4-28.2 2-2 4.9-3.4 6.9-4.3 3.5-1.5 7.1-2.9 10.6-4.3 4.7-1.9 9.5-3.8 14.2-5.9 5.4-2.4 9.1-6.8 10.6-12.4 1.2-4.5 2-9.1 2.9-13.6l.3-1.6c.6-3.4.2-6-1.4-7.8-1.6-1.8-4-2.6-7.4-2.4-3.8.2-7.6 1.2-10.9 2.1-8 2.3-13.7 1.5-18.5-2.5-6.8-5.7-14.6-7.8-24-6.4-3.3.5-6.5 1.3-9.6 2-1.4.3-2.9.7-4.3 1-8.1 1.8-20.3 6.4-32.1 25.6-1 1.7-1.9 4.9-2 5.3l-1 5.6c-1.2 6.3-3.6 12.3-7.2 17.5-1.4-5.5-2.2-11.2-2.2-17.1 0-36.9 30-66.9 66.9-66.9s66.9 30 66.9 66.9c-.1 37-30.1 67-67 67z"/></svg>