<svg viewBox="0 0 171.8 142.8"><path d="M105.6 105.5H41.1c-6.6 0-9-1.8-10.8-8.1-4.6-16.1-9.2-32.2-13.6-48.4-.8-3-2-3.9-5-3.8-2.1.1-4.5-.3-6.4-1.3-3.1-1.6-4.6-5.6-3.8-8.6 1.1-4.2 4-6.6 8.5-6.7 4.1-.1 8.3 0 12.4 0h105.8c2.6 0 3.7-.6 4.3-3.3 1-4.6 2.2-9.1 3.9-13.5.9-2.3 2.8-5 4.9-5.7 6.1-2.2 12.5-3.9 18.9-5.2 4.8-1 8.2 1.5 9.2 6.1.8 3.7-1.8 7.5-6.1 8.8-3.4 1-6.9 1.9-10.3 2.7-2.1.5-3.2 1.5-3.8 3.6-8.6 31.3-17.2 62.6-26 93.8-.6 2.3-.4 3.5 1.6 5 3.9 2.9 5.1 8.4 3.3 12.7-2 5-6.2 7.5-11.6 7.2-4.9-.3-8.8-3.6-10.1-8.4-.3-1.2-.5-2.3-.8-3.5H50.1c-.5 1.6-.8 3.2-1.3 4.6-1.9 4.9-6 7.5-11.2 7.3-5-.2-9.2-3.1-10.3-8-2.4-10.2 3.1-18.8 13.5-18.9 20-.2 40.1 0 60.1 0 7.8 0 7.8 0 8.5-8.2-1.1-.2-2.5-.2-3.8-.2zm-39.4-59c.8 4.8 1.5 9.4 2.4 14 1.5 8.2 3.1 16.4 4.5 24.6.3 2 1.2 2.5 3.1 2.6 8.8.3 8.8.4 10.2-7.7l5.4-30c.2-1.1.3-2.1.6-3.5H66.2zm47.1 41c.7 0 1.8-1 2-1.8 3.6-12.6 7.2-25.3 10.7-38 .1-.3-.1-.6-.1-1.4-5.3 0-10.7-.1-16 .1-.6 0-1.5 1.2-1.7 2-2.9 12.8-5.7 25.6-8.7 39.2 4.9 0 9.3.1 13.8-.1zM55.6 72.6c-1.8-7.9-3.5-15.9-5.4-23.8-.2-1-1.3-2.4-2-2.4-5.2-.2-10.4-.1-16.2-.1 1.1 4.1 2 7.7 3 11.3 2.6 9 5.2 18 7.6 27 .6 2.4 1.7 3.3 4.2 3.1 3.8-.2 7.5 0 12.1 0-1.2-5.5-2.2-10.3-3.3-15.1z"/></svg>