<svg width="59" height="42" viewBox="0 0 59 42" xmlns="http://www.w3.org/2000/svg" xmlns:xlink="http://www.w3.org/1999/xlink"><title>icon_car</title><defs><path id="a" d="M59 0H0v42h59V21z"/></defs><g fill="none" fill-rule="evenodd"><mask id="b" fill="#fff"><use xlink:href="#a"/></mask><path d="M45.025 37.34c-1.941 0-3.515-1.558-3.515-3.481 0-1.922 1.574-3.481 3.515-3.481 1.94 0 3.514 1.559 3.514 3.481 0 1.923-1.573 3.481-3.514 3.481zm-13.38-9.085c-1.789.641-1.676.524-1.669 2.418.007 1.94-.012 1.952-1.987 1.945-.362 0-.727.025-1.087-.006-.626-.054-.893-.345-.911-.97a48.525 48.525 0 0 1-.013-1.795c.004-.494-.21-.747-.718-.86-1.194-.264-2.402-.508-3.556-.9-1.674-.568-1.745-.788-1.28-2.45.166-.595.331-1.19.526-1.776.236-.707.496-.822 1.17-.482 1.361.686 2.8 1.106 4.31 1.284 1.102.13 2.178.036 3.155-.538 1.219-.716 1.51-2.117.561-3.155-.482-.529-1.145-.935-1.795-1.265-.909-.463-1.906-.755-2.82-1.209-.967-.48-1.933-.992-2.808-1.614-3.676-2.613-2.953-8.34.964-10.36.533-.275 1.089-.52 1.657-.712.636-.215.976-.564.919-1.268-.042-.516-.018-1.038-.001-1.556.024-.74.236-.97.977-1 .643-.026 1.29-.02 1.933.015.714.039.91.258.942.968.024.538.033 1.076.051 1.614.015.443.244.66.687.766 1.15.278 2.303.557 3.424.925.903.296 1.019.617.76 1.502a81.262 81.262 0 0 1-.66 2.173c-.273.848-.492.937-1.325.555-1.548-.71-3.175-1.035-4.872-.861a3.95 3.95 0 0 0-1.577.502c-.911.544-1.107 1.717-.37 2.47.532.543 1.215.98 1.904 1.323 1.328.66 2.741 1.154 4.057 1.835 2.588 1.34 4.014 3.448 3.967 6.402-.043 2.66-1.87 5.132-4.515 6.08zM12.937 37.34c-1.94 0-3.514-1.558-3.514-3.481 0-1.922 1.573-3.481 3.514-3.481 1.941 0 3.515 1.559 3.515 3.481 0 1.923-1.574 3.481-3.515 3.481zm41.616-17.734L47.91 9.977h-9.056V0H0v35.348h.053l.013.013 4.797.014C5.58 39.146 8.92 42 12.937 42c4 0 7.33-2.83 8.066-6.577l15.964.048C37.723 39.195 41.043 42 45.025 42c3.965 0 7.274-2.781 8.047-6.481l5.928.018V21.482l-4.447-1.876z" fill="#3E3E3E" mask="url(#b)"/></g></svg>