<svg width="56" height="44" viewBox="0 0 56 44" xmlns="http://www.w3.org/2000/svg" xmlns:xlink="http://www.w3.org/1999/xlink"><title>icon_portal</title><defs><path id="a" d="M55.67 44V0H0v44h55.67z"/></defs><g fill="none" fill-rule="evenodd"><path d="M29.54 13.2a3.72 3.72 0 0 1 6.188 2.777c0 2.055-1.671 3.704-3.725 3.704h-7.867c-.627 0-1.136.531-1.136 1.16 0 .627.509 1.159 1.136 1.159h7.867A6.005 6.005 0 0 0 38 16c0-3.309-2.69-6-5.997-6a5.988 5.988 0 0 0-3.967 1.5 1.136 1.136 0 1 0 1.504 1.7" fill="#3E3E3E"/><path d="M28.064 24.696c-.415-.5-1.133-.561-1.604-.122a3.57 3.57 0 0 1-2.463.957c-2.054 0-3.724-1.83-3.724-4.007 0-2.177 1.67-4.067 3.724-4.067h7.867c.627 0 1.136-.563 1.136-1.229 0-.665-.509-1.228-1.136-1.228h-7.867C20.69 15 18 17.995 18 21.5s2.69 6.5 5.997 6.5a5.8 5.8 0 0 0 3.967-1.59c.47-.44.515-1.216.1-1.714" fill="#3E3E3E"/><mask id="b" fill="#fff"><use xlink:href="#a"/></mask><path d="M11.96 18.23c0-8.374 6.76-15.161 15.097-15.161s15.096 6.787 15.096 15.16c0 8.374-6.759 15.162-15.096 15.162-8.338 0-15.097-6.788-15.097-15.161zm43.71 18.492V0H0v36.722h22.73v2.646h-4.612V44h19.106v-4.632H32.94v-2.646h22.73z" fill="#3E3E3E" mask="url(#b)"/></g></svg>