<svg width="59" height="45" viewBox="0 0 59 45" xmlns="http://www.w3.org/2000/svg" xmlns:xlink="http://www.w3.org/1999/xlink"><title>icon_bank</title><defs><path id="a" d="M0 45h59V0H0z"/></defs><g fill="none" fill-rule="evenodd"><mask id="b" fill="#fff"><use xlink:href="#a"/></mask><path d="M12.484 38.86h9.29V21.605h-9.29V38.86zm37.742-5.7a18.285 18.285 0 0 1-9 1.824v3.875H31.065v-7.606a18.618 18.618 0 0 1-7.343-14.847 18.615 18.615 0 0 1 6.794-14.412L26.926 0 .139 14.88H0v6.726h3.484V38.86H0V45h54v-6.14h-3.774v-5.7z" fill="#3E3E3E" mask="url(#b)"/><path d="M35.54 20.772c.188-1.789 1.092-2.996 2.615-3.575.73-.278 1.495-.45 2.248-.648a4.173 4.173 0 0 1-.5-.605c-.66-.967-1.067-2.052-1.065-3.259.001-1.027.052-2.076.247-3.075.272-1.39 1.11-2.251 2.389-2.546A5.377 5.377 0 0 1 43.9 7.04c1.558.355 2.437 1.45 2.654 3.278.066.548.096 1.1.142 1.65.008 1.466-.314 2.802-1.123 3.983-.152.224-.32.422-.496.6.784.212 1.58.396 2.34.692 1.62.63 2.413 2.004 2.576 3.851.093 1.057.101 2.123.182 3.182.035.47-.133.784-.437 1.058-.643.58-1.375.954-2.162 1.223-1.577.538-3.2.625-4.744.666-1.885-.03-3.685-.117-5.382-.854-.64-.278-1.22-.74-1.809-1.148-.26-.181-.362-.482-.336-.846.084-1.2.109-2.408.234-3.602M42.5 33C51.613 33 59 25.613 59 16.5S51.613 0 42.5 0 26 7.387 26 16.5 33.387 33 42.5 33" fill="#3E3E3E" mask="url(#b)"/></g></svg>