<svg width="70" height="70" viewBox="0 0 70 70" xmlns="http://www.w3.org/2000/svg"><title>icon_money</title><g fill="#3E3E3E" fill-rule="evenodd"><path d="M32.59 62.776c-2.284-.433-4.588-.778-6.847-1.32-3.215-.773-6.023-2.446-8.657-4.442-.618-.468-1.262-.9-2.043-1.456v3.038H12V50h8.565v3.17h-2.709c2.467 3.266 10.077 6.894 17.578 6.283 5.265-.43 10.34-1.446 16.946-8.198l2.183 2.412c-1.11.941-2.349 1.886-3.465 2.964-1.757 1.696-3.828 2.84-6.014 3.796a26.39 26.39 0 0 1-8.807 2.17c-.31.021-.614.117-.92.179H32.59zM34.448 8c2.51.503 5.057.862 7.52 1.545a19.692 19.692 0 0 1 8.126 4.496c.494.453 1.094.784 1.802 1.28v-3.057H55V21h-8.403v-3.202h2.715c-2.33-3.217-9.947-7.082-17.822-6.41-5.54.474-9.982 1.425-17.184 8.255L12 17.325c1.2-1.028 2.373-2.202 3.705-3.133 1.915-1.337 3.87-2.662 5.946-3.692 2.841-1.41 5.914-2.104 9.073-2.318.313-.021.621-.12.932-.182h2.792z"/><path d="M33.23 46.745c1.51.007 1.653-.066 1.563-1.52-.062-1.017.364-1.442 1.224-1.778 2.162-.843 3.4-2.832 3.215-5.023-.164-1.948-1.166-3.336-2.846-4.19-1.135-.576-2.34-1.006-3.485-1.565-.702-.343-1.386-.827-1.168-1.783.197-.864.907-1.158 1.682-1.077 1.141.12 2.267.386 3.408.528.348.044.922.011 1.05-.2 1.197-2.005.867-2.775-1.34-3.35-.106-.027-.208-.083-.314-.09-.903-.057-1.328-.427-1.247-1.462.1-1.282-.893-1.19-1.74-1.203-.81-.012-1.497.123-1.35 1.205.137.994-.206 1.559-1.183 1.916-1.94.711-2.97 2.239-3.065 4.323-.095 2.062 1.05 3.427 2.735 4.33.99.53 2.05.933 3.099 1.342 1.14.444 1.879 1.289 1.775 2.129-.102.817-1.065 1.561-2.283 1.446-1.278-.122-2.553-.447-3.784-.83-.63-.197-.909-.162-1.148.478-.86 2.303-.663 2.72 1.677 3.323.316.082.634.161.956.213.75.12 1.118.466 1.095 1.333-.038 1.452.065 1.498 1.475 1.505m16.542-11.403c.025 9.196-7.19 16.391-16.314 16.431-9.075.04-16.481-7.04-16.459-16.397.022-9.204 7.159-16.355 16.371-16.376 9.069-.012 16.377 7.102 16.402 16.342z"/></g></svg>