<svg width="59" height="46" viewBox="0 0 59 46" xmlns="http://www.w3.org/2000/svg"><title>icon_bank_numus</title><g fill="none" fill-rule="evenodd"><path fill="#000" d="M0 16.238h.333V16z"/><g fill="#3E3E3E"><path d="M12.594 39.058h9.3V21.86h-9.3v17.197zm37.784-5.68a18.37 18.37 0 0 1-9.01 1.817v3.863H31.195v-7.582a18.53 18.53 0 0 1-7.35-14.799 18.52 18.52 0 0 1 6.801-14.365L27.053.324.235 15.157H.097v6.704h3.487v17.197H.097v6.12h54.059v-6.12h-3.778v-5.68z"/><path d="M37.972 12.825h8.505c.678 0 1.228.63 1.228 1.312 0 .68-.55 1.311-1.228 1.311h-8.505c-2.22 0-4.026 1.754-4.026 3.98a4.012 4.012 0 0 0 6.689 2.986 1.225 1.225 0 1 1 1.626 1.832 6.465 6.465 0 0 1-4.289 1.626c-3.575 0-6.483-2.938-6.483-6.523 0-3.586 2.908-6.524 6.483-6.524m4.326-3.726a6.466 6.466 0 0 1 4.289-1.627c3.575 0 6.483 2.88 6.483 6.466 0 3.585-2.908 6.465-6.483 6.465h-8.505c-.678 0-1.228-.485-1.228-1.166 0-.68.55-1.166 1.228-1.166h8.505c2.22 0 4.026-1.841 4.026-4.068 0-2.226-1.806-4.053-4.026-4.053-.982 0-1.928.351-2.663 1.002a1.227 1.227 0 0 1-1.734-.112c-.45-.51-.4-1.291.108-1.741m.037 23.915c9.06 0 16.406-7.366 16.406-16.453 0-9.088-7.345-16.454-16.406-16.454-9.062 0-16.407 7.366-16.407 16.454 0 9.087 7.345 16.453 16.407 16.453"/></g></g></svg>