<svg xmlns="http://www.w3.org/2000/svg" xmlns:xlink="http://www.w3.org/1999/xlink" id="Layer_1" viewBox="0 0 188.00578 188.00578" width="188.006" height="188.006"><style id="style3">.st0,.st1{fill:#393a56}.st0{stroke:#febc11;stroke-width:3;stroke-miterlimit:10}.st1{clip-path:url(#XMLID_2_)}.st2{fill:#fff}.st2,.st3{clip-path:url(#XMLID_3_)}.st4{fill:#ac2724}.st5{fill:none}.st6{fill:#fff}.st7{fill:none;stroke:#fff;stroke-width:3;stroke-miterlimit:10}.st8{clip-path:url(#XMLID_5_)}.st9{fill:#393a56}</style><g id="XMLID_1440_" transform="translate(1.403 1.603)"><path id="XMLID_1479_" class="st0" d="M91.8-.1C40.8.3-.3 42.1.1 93.1c.4 51 42.1 92.2 93.2 91.8 51.1-.4 92.2-42.1 91.8-93.2-.4-51.1-42.2-92.2-93.3-91.8zm1.3 158.9c-36.7.3-66.6-29.2-66.9-65.9C25.9 56.3 55.4 26.3 92 26c36.6-.3 66.6 29.2 66.9 65.9.3 36.7-29.2 66.6-65.8 66.9z" fill="#393a56" stroke="#febc11" stroke-width="3" stroke-miterlimit="10"/><g id="XMLID_1476_"><defs id="defs8"><circle id="XMLID_1477_" cx="92.6" cy="92.4" r="66.4"/></defs><use xlink:href="#XMLID_1477_" id="use11" width="100%" height="100%" overflow="visible" fill="#393a56"/><clipPath id="XMLID_2_"><use xlink:href="#XMLID_1477_" id="use14" width="100%" height="100%" overflow="visible"/></clipPath><path id="XMLID_1478_" class="st1" d="M27.2 212.5c-.7-7-1.6-14.1-2-21.1-.8-15.3 1.9-30.2 4.8-45.2 1.8-9.1 3.6-18.3 2.2-27.7-.9-5.9-2.8-11.6-4.1-17.4-.2-.9-.2-2.1.2-2.9C32 91.3 36.7 85.3 43 80.7c.9-.7 1.7-1.8 2.1-2.8 2.6-8.2 5.1-16.4 7.7-24.6.5-1.8 1.2-3.5 2.1-5.3 3.5 5.7 5.4 11.9 7.6 17.9.2 0 .4.1.6.1 1.8-5.6 3.7-11.3 5.5-16.9.2 0 .5 0 .7-.1.7 1 1.5 2 2 3.1 4.4 9.2 5 18.9 3.9 28.8-.3 2.2.3 3.2 2.2 4.2 2.9 1.6 5.8 3.3 8.2 5.5 2 1.9 4 4.3 4.9 6.9 1.3 3.7 3.5 6.5 6.7 8.2 7.3 3.9 14.8 7.5 22.2 11.2 1.6.8 3.4 1.4 5 2.1 1.9.8 2.9 2 1.9 4.1-1.6 3.6-2.9 7.3-5 10.6-4.7 7.6-12 10.7-20.8 10.7-5.8.1-11.6.1-17.5.3-2.1.1-4.2.4-6.3.8-4.7.9-8.3 3.5-10.1 7.9-3.1 7.6-5.6 15.5-8.8 23-2.2 5.2-4.9 10.2-8.1 14.9-5.8 8.5-13.7 15-21.7 21.3-.1 0-.4 0-.8-.1z" clip-path="url(#XMLID_2_)" fill="#393a56"/></g><g id="XMLID_1463_"><defs id="defs18"><circle id="XMLID_1464_" cx="92.6" cy="92.4" r="66.4"/></defs><clipPath id="XMLID_3_"><use xlink:href="#XMLID_1464_" id="use22" width="100%" height="100%" overflow="visible"/></clipPath><path id="XMLID_1475_" transform="matrix(1 -.00764 .00764 1 -.716 .71)" class="st2" clip-path="url(#XMLID_3_)" fill="#fff" d="M20.1 16h144.8v156.1H20.1z"/><g id="XMLID_1465_" class="st3" clip-path="url(#XMLID_3_)"><path id="XMLID_1474_" class="st4" d="M24 171.6l131.9-1c3.2 0 5.9 2.6 5.9 5.8l.1 7.3-137.8 1.1-.1-13.2z" fill="#ac2724"/><path id="XMLID_1473_" class="st4" d="M24.2 196l131.9-1c3.2 0 5.9 2.6 5.9 5.8l.1 7.3-137.8 1.1-.1-13.2z" fill="#ac2724"/><path id="XMLID_1472_" class="st4" d="M23.9 147.4l131.9-1c3.2 0 5.9 2.6 5.9 5.8l.1 7.3L24 160.6l-.1-13.2z" fill="#ac2724"/><path id="XMLID_1471_" class="st4" d="M23.7 123.1l131.9-1c3.2 0 5.9 2.6 5.9 5.8l.1 7.3-137.8 1.1-.1-13.2z" fill="#ac2724"/><path id="XMLID_1470_" class="st4" d="M23.5 98.8l131.9-1c3.2 0 5.9 2.6 5.9 5.8l.1 7.3L23.6 112l-.1-13.2z" fill="#ac2724"/><path id="XMLID_1469_" class="st4" d="M23.3 74.5l131.9-1c3.2 0 5.9 2.6 5.9 5.8l.1 7.3-137.8 1.1-.1-13.2z" fill="#ac2724"/><path id="XMLID_1468_" class="st4" d="M23.1 50.2l131.9-1c3.2 0 5.9 2.6 5.9 5.8l.1 7.3-137.8 1.1-.1-13.2z" fill="#ac2724"/><path id="XMLID_1467_" class="st4" d="M22.7 1l131.9-1c3.2 0 5.9 2.6 5.9 5.8l.1 7.3-137.8 1.1L22.7 1z" fill="#ac2724"/><path id="XMLID_1466_" class="st4" d="M22.9 25.9l131.9-1c3.2 0 5.9 2.6 5.9 5.8l.1 7.3L23 39.1l-.1-13.2z" fill="#ac2724"/></g></g><path id="XMLID_x5F_4_x5F_" class="st5" d="M178 98.2c3.2-47.2-32.4-88-79.6-91.2-47.2-3.2-88 32.4-91.2 79.6-3.2 47.2 32.4 88 79.6 91.2 47.2 3.2 88-32.4 91.2-79.6z" fill="none"/><text id="XMLID_1461_"><textPath xlink:href="#XMLID_x5F_4_x5F_" startOffset="-456.156%" id="textPath37"><tspan class="st6" id="tspan39" font-size="16.738" font-family="AvenirNextCondensed-Bold" letter-spacing="101.6" fill="#fff">Service dog act</tspan></textPath></text><g id="XMLID_1445_"><path id="XMLID_1460_" class="st6" fill="#fff" d="M91.9 5.2l2.3 4.6 5.1.7-3.7 3.6.9 5-4.5-2.3-4.6 2.4.9-5.1-3.7-3.5 5.1-.8 2.2-4.6"/><path id="XMLID_1459_" class="st6" fill="#fff" d="M62.4 11l3.8 3.5 5-1-2.2 4.6 2.6 4.5-5.1-.7-3.5 3.8-.9-5-4.7-2.1 4.5-2.5.5-5.1"/><path id="XMLID_1458_" class="st6" fill="#fff" d="M35.7 26.3l4.7 2 4.4-2.8-.5 5.2 4 3.2-5 1.2-1.9 4.8-2.7-4.4-5.1-.4 3.4-3.8-1.3-5"/><path id="XMLID_1457_" class="st6" fill="#fff" d="M15.9 49.8l5.1.3 3.2-4.1 1.3 5 4.8 1.7-4.3 2.8-.1 5.1-4-3.2-4.9 1.4 1.8-4.8-2.9-4.2"/><path id="XMLID_1456_" class="st6" fill="#fff" d="M5.4 78.7l4.9-1.5 1.6-4.9 2.9 4.2 5.2-.1-3.1 4.1 1.6 4.9-4.8-1.6-4.2 3 .1-5.1-4.2-3"/><path id="XMLID_1455_" class="st6" fill="#fff" d="M5.6 109.5l4-3.1-.2-5.2 4.2 2.9 4.8-1.8-1.4 4.9 3.2 4-5.2.2-2.8 4.3-1.7-4.9-4.9-1.3"/><path id="XMLID_1454_" class="st6" fill="#fff" d="M121.3 10.5l.6 5.1 4.5 2.4-4.6 2.2-.9 5-3.5-3.7-5.1.7 2.5-4.5-2.2-4.6 5 1 3.7-3.6"/><path id="XMLID_1453_" class="st6" fill="#fff" d="M148.2 25.3l-1.2 5 3.5 3.9-5.2.4-2.5 4.4-2-4.7-5-1.1 3.9-3.3-.6-5.1 4.4 2.6 4.7-2.1"/><path id="XMLID_1452_" class="st6" fill="#fff" d="M168.4 48.6l-2.8 4.3 1.9 4.7-5-1.4-3.9 3.3-.2-5.1-4.4-2.7 4.8-1.8 1.3-5 3.2 4 5.1-.3"/><path id="XMLID_1451_" class="st6" fill="#fff" d="M179.3 77.3l-4.1 3.1.1 5.1-4.2-3-4.8 1.7 1.6-4.9-3.2-4 5.2-.1 2.9-4.2 1.6 4.9 4.9 1.4"/><path id="XMLID_1450_" class="st6" fill="#fff" d="M179.6 108.1l-4.9 1.4-1.6 4.9-2.9-4.3h-5.1l3.1-4.1-1.5-4.9 4.8 1.8 4.2-3-.2 5.1 4.1 3.1"/></g><circle id="XMLID_1444_" class="st7" cx="92.6" cy="92.4" r="66.4" fill="none" stroke="#fff" stroke-width="3" stroke-miterlimit="10"/><g id="XMLID_1256_"><defs id="defs55"><circle id="XMLID_1443_" cx="92.6" cy="91.9" r="65.2"/></defs><clipPath id="XMLID_5_"><use xlink:href="#XMLID_1443_" id="use59" width="100%" height="100%" overflow="visible"/></clipPath><g id="XMLID_1425_" class="st8" clip-path="url(#XMLID_5_)"><path id="XMLID_21_" class="st9" d="M303.5 160.8c-1.1 0-2.2-.4-3.2-.7-.3-.1-.7-.2-1-.3l-1.2-.3c-2.1-.6-4.3-1.2-6.4-2.1-2.5-1-5.1-2.2-7.8-3.7-5.6-3.1-10.6-7.2-15.3-12.6-3.5-4.1-6.5-8.6-8.7-13.6-.9-1.9-1.5-3.9-2.2-5.8-.2-.6-.4-1.1-.6-1.7-.2-.6-.2-1.2-.3-1.6 0-.7-.1-.9-.3-1.2l-.4-.4-.2-22.8.3-.4c.4-.5.6-.9.9-1.4.4-.7.7-1.4 1.4-2 .3-.3.5-.6.8-.8l1.5-1.5c.9-.8 1.8-1.4 2.7-2l.7-.5c.9-.6 1.9-1.3 2.9-1.7 1.6-.7 3.2-1.3 4.9-1.8 3.3-.9 5.6-2 7.5-3.6 2.4-2 5.1-2.3 7.8-2.7h.2c.5-.1.9-.1 1.4-.1 1.1-.1 2.1-.2 3-.5 1.5-.4 2.9-1.2 4.4-2 2.4-1.3 5-2 7.1-2.4.4-.1.8-.2 1.2-.2 2.1-.4 4.1-.8 5.7-1.9 2.5-1.7 4.9-3.6 6.9-5.2.2-.2.4-.5.7-.9.2-.2.3-.5.5-.7.1-.2.3-.4.4-.6.4-.5.8-1.1 1.3-1.7 2.1-1.8 3.7-4 5.4-6.4l.3-.4c.8-1.1 1.6-2.1 2.4-3.2 1.4-1.8 2.9-3.7 4.2-5.7 1.3-2 2.8-3.7 4.3-5.3l.3-.3c.8-.9 1.7-1.4 2.8-1.4h1c.3-.1.6-.1.9-.1 1.6 0 2.8 1 3.3 2.8l.1.3c.3 1.1.6 2.2.7 3.4.2 4.1.2 8.2.3 12v2.6c0 .9-.1 1.7 0 2.5.3-.3.7-.7 1-1.1.3-.4.7-.7 1-1.1.8-.8 1.7-1.5 2.5-2.1 1.6-1.3 3.2-2.6 4.8-3.8 3.6-2.9 7.4-5.9 11-8.9.9-.8 1.8-1.8 2.6-2.9.4-.5.8-1.1 1.3-1.6l.3-.3.2-.2c.5-.5 1.3-1.3 2.5-1.3.4 0 .8.1 1.2.3.5.2 2.3 1.2 1.6 3.9-.5 2.1-1 3.9-1.5 5.6-.6 1.9-1.3 3.8-2 5.6l-.2.5c-.5 1.2-.9 2.4-1.4 3.6l-.7 1.7-.7 1.7c-.5 1.2-1 2.5-1.5 3.7-.4.9-.7 1.7-1.1 2.4-.2.3-.2.5-.2.5s0 .1.2.2c.9.9 1.9 1.7 2.9 2.5.6.5 1.1 1 1.7 1.5.7.6 1.3 1.1 1.9 1.8.7.8 1.4 1.6 2.2 2.6l.6.9c.1.2.2.3.3.5.3.4.6.8.9 1.1l1.2 1.5c.5.7 1.1 1.5 1.2 2.4.2 1.2.7 2.1 1.7 2.8 1.5 1.1 2.1 2.6 1.7 4.3-.1.7-.3 1.3-.4 2-.2.9-.4 1.8-.5 2.6-.3 1.5.2 2.8 1.4 3.7 1.6 1.2 3.3 2.4 5 3.5.5.3.9.6 1.3.9.6.4 1.2.7 1.8 1.1 1.1.6 2.1 1.3 3.2 2.1 1.9 1.5 4.2 2.8 6.4 4l.4.2c10 5.5 7.2 11.7 6.2 13.7-.1.2-.2.3-.2.4-.4 1.4-1.2 2.3-2 3.1l-.1.1c-1 1.1-1.7 1.8-1.7 2.9 0 3.2-2.5 5-4 6.1-.8.6-1.8 1.1-3 1.5-1.2.4-2.7.9-4.2 1.1-1.3.2-2.6.4-4 .6-3.8.6-7.6 1.2-11.5 1.2-1.2 0-2.3-.1-3.4-.2-2-.2-4.1-.6-6.6-1.2-.7-.2-1.3-.6-1.8-.9-.3-.2-.6-.4-.8-.5-.9-.2-1.7-.3-2.4-.3s-1.3.1-1.9.3c-1 .5-10.5 5.4-12.5 6.6-1.2.7-2.4 1-3.6 1.4l-.6.2c-3.1.9-5.9 2.5-8.3 3.9-2.5 1.5-5.2 2.7-7.6 3.8-2.2 1-4.2 2.6-6.1 4.2-.4.3-.8.7-1.2 1.1-1 .9-2.1 2-3.6 2.6-.4.5-1 .6-1.2.6l-12.3-.1z" fill="#393a56"/><path id="XMLID_18_" class="st6" d="M341.9 37.9c1 0 1.6.6 1.9 1.7.3 1.1.6 2.2.7 3.3.2 4 .2 8 .3 12 0 1.7-.1 3.5-.1 5.2 0 .6.3 1.5.6 1.6h.3c.5 0 1-.2 1.4-.5.8-.7 1.5-1.6 2.2-2.3.7-.7 1.5-1.4 2.4-2 5.3-4.3 10.6-8.4 15.7-12.8 1.5-1.3 2.7-3.1 4-4.6.1-.1.1-.2.2-.2.5-.5 1-1.1 1.6-1.1.2 0 .4 0 .5.1 1 .4 1 1.4.8 2.2-.4 1.8-.9 3.7-1.5 5.5-.7 2-1.4 4-2.2 6.1l-2.1 5.4-2.1 5.4c-.3.7-.6 1.5-1 2.2-.5 1-.6 1.7.3 2.5 1.5 1.4 3.1 2.7 4.7 4 .6.5 1.2 1.1 1.8 1.7.7.8 1.5 1.7 2.1 2.5.3.4.5 1 .9 1.4.7.9 1.5 1.7 2.1 2.7.4.5.8 1.1.9 1.7.2 1.6 1 2.9 2.3 3.8 1 .7 1.4 1.6 1.1 2.8-.3 1.6-.7 3.1-1 4.7-.4 2.1.3 3.9 1.9 5.2 2 1.6 4.2 3 6.4 4.4 1.6 1.1 3.4 1.9 4.8 3.1 2.1 1.7 4.6 3 7 4.3 9.9 5.5 5.7 11.1 5.3 12.5-.3 1-.9 1.8-1.6 2.5-1.1 1.1-2.2 2.2-2.2 4.1 0 2.3-1.7 3.7-3.4 4.9-.8.6-1.7 1-2.6 1.3-1.3.4-2.6.8-4 1-5.1.7-10.2 1.7-15.3 1.7-1.1 0-2.1 0-3.2-.1-2.1-.2-4.3-.6-6.3-1.1-.9-.2-1.7-1.2-2.6-1.4-.8-.2-1.7-.4-2.8-.4-.8 0-1.6.1-2.5.4-.3.1-10.6 5.4-12.8 6.7-1.2.7-2.6 1-3.9 1.4-3.1.9-5.9 2.4-8.6 4-2.4 1.4-4.9 2.6-7.4 3.7-2.3 1-4.4 2.7-6.4 4.4-1.6 1.3-2.9 3-4.9 3.7-.1 0-.1.1-.2.1-4 0-8-.1-12-.1-1.3 0-2.5-.5-3.8-.8-2.5-.7-5-1.3-7.4-2.3-2.6-1-5.2-2.2-7.7-3.6-5.7-3.1-10.6-7.3-14.9-12.3-3.5-4-6.3-8.4-8.5-13.2-1.1-2.4-1.8-4.9-2.7-7.4-.4-1.1.1-2.2-.9-3.3l-.2-21.7c1-1.3 1.2-2.3 2.2-3.3.8-.8 1.4-1.6 2.2-2.3.8-.7 1.7-1.3 2.6-1.9 1.1-.7 2.2-1.5 3.4-2.1 1.5-.7 3.1-1.3 4.7-1.7 2.9-.8 5.7-1.9 8-3.9 2.1-1.8 4.7-2 7.2-2.4 1.5-.2 3.1-.2 4.6-.7 1.6-.5 3.2-1.3 4.7-2.1 2.1-1.1 4.4-1.8 6.7-2.3 2.5-.6 5.2-.9 7.4-2.4 2.4-1.6 4.7-3.4 7-5.2.6-.5.9-1.2 1.4-1.8.5-.7.9-1.5 1.5-2 2.3-2.1 4.1-4.6 5.9-7 2.2-3 4.6-5.8 6.7-8.9 1.3-2 2.9-3.7 4.5-5.5.5-.5 1-.9 1.7-.9h1.3c.5-.3.7-.3.9-.3m0-3c-.4 0-.7 0-1.1.1h-.8c-1.5 0-2.8.6-3.9 1.9l-.3.4c-1.5 1.7-3.1 3.4-4.5 5.5-1.2 1.9-2.6 3.7-4.1 5.6-.8 1-1.6 2.1-2.5 3.2l-.3.4c-1.7 2.3-3.2 4.4-5.2 6.1-.7.6-1.2 1.4-1.6 2-.1.2-.2.4-.4.5-.2.2-.4.5-.5.8-.1.2-.3.4-.4.5-2.5 2-4.6 3.6-6.8 5.1-1.4.9-3.2 1.3-5.1 1.7l-1.2.3c-2.1.5-4.9 1.2-7.5 2.6-1.5.8-2.8 1.5-4.2 1.9-.8.2-1.7.3-2.7.4-.5 0-1 .1-1.5.2h-.2c-2.7.3-5.8.7-8.5 3-1.7 1.4-3.8 2.4-6.9 3.3-1.8.5-3.5 1.1-5.1 1.9-1.2.5-2.2 1.2-3.1 1.9-.2.1-.4.3-.7.4-.9.6-1.9 1.3-2.9 2.1-.6.5-1.2 1.1-1.6 1.6-.2.3-.5.5-.7.8-.8.8-1.3 1.7-1.7 2.4-.2.4-.4.8-.7 1.2l-.6.8v1l.2 21.7v1.1l.7.8v.3c0 .5.1 1.2.3 2 .2.6.4 1.1.6 1.7.6 2 1.3 4 2.2 6 2.3 5 5.3 9.7 8.9 13.9 4.8 5.5 9.9 9.8 15.7 12.9 2.7 1.5 5.4 2.8 8 3.8 2.2.9 4.4 1.5 6.5 2.1l1.2.3c.3.1.6 0 .9.1 1 .4 2.3.6 3.7.6l4 .1h8c.7 0 1.5-.2 2.1-.8 1.6-.7 2.7-1.8 3.7-2.7.4-.4.8-.7 1.1-1 1.8-1.5 3.8-3.1 5.8-4 2.4-1.1 5.1-2.3 7.7-3.8 2.3-1.4 5-2.9 7.9-3.7.2-.1.4-.1.6-.2 1.2-.4 2.7-.8 4-1.5 2-1.2 10.9-5.8 12.3-6.5.4-.1.9-.2 1.4-.2.6 0 1.2.1 2 .3.1.1.3.2.4.3.5.4 1.3.9 2.3 1.1 2.5.6 4.7 1 6.8 1.2 1.1.1 2.3.2 3.5.2 4 0 8-.6 11.8-1.2l3.9-.6c1.6-.2 3.2-.7 4.5-1.1 1.3-.4 2.5-1 3.4-1.7 1.6-1.2 4.7-3.4 4.6-7.3 0-.5.3-.9 1.2-1.9l.1-.1c.9-1 1.9-2.1 2.3-3.7 0-.1.1-.2.1-.3 2.9-6.3.6-11.6-6.9-15.7l-.4-.2c-2.1-1.2-4.4-2.4-6.2-3.8-1.1-.9-2.2-1.5-3.3-2.2-.6-.4-1.2-.7-1.7-1.1-.5-.3-.9-.6-1.4-.9-1.7-1.1-3.3-2.2-4.8-3.4-.7-.6-1-1.3-.8-2.3.2-.8.3-1.7.5-2.6.1-.7.3-1.3.4-2 .5-2.3-.4-4.4-2.3-5.8-.7-.5-1-1-1.1-1.8-.2-1.4-.9-2.4-1.4-3.1v-.1c-.4-.6-.9-1.1-1.3-1.6-.3-.4-.6-.7-.9-1.1 0 0-.1-.2-.2-.3-.2-.3-.4-.7-.7-1.1-.8-1-1.6-1.9-2.3-2.7-.6-.7-1.3-1.3-2-1.9-.6-.5-1.2-1-1.7-1.5-.8-.6-1.5-1.3-2.2-1.9.3-.6.6-1.2.9-1.9.5-1.2 1-2.5 1.5-3.7.2-.6.4-1.1.7-1.7.2-.6.5-1.2.7-1.7.5-1.2 1-2.4 1.4-3.7l.2-.5c.7-1.9 1.4-3.8 2-5.7.6-1.7 1.1-3.6 1.5-5.7.7-3-.8-4.9-2.5-5.6-.6-.3-1.2-.4-1.8-.4-1.8 0-3 1.2-3.6 1.8l-.1.1-.4.4c-.4.5-.9 1.1-1.3 1.6-.8 1-1.6 2-2.4 2.7-3.6 3-7.3 6-10.9 8.9-1.6 1.3-3.2 2.5-4.8 3.8-.7.6-1.3 1.1-1.9 1.6v-1.3c-.1-3.9-.1-8-.3-12.1-.1-1.4-.4-2.6-.7-3.7l-.1-.3c-.4-2.2-2.2-3.6-4.5-3.6z" fill="#fff"/></g><g id="XMLID_1486_" class="st8" clip-path="url(#XMLID_5_)"><path id="XMLID_16_" class="st9" d="M87.7 163.5c-12.4 0-26.6-3.7-40.3-7.2-13.9-3.6-28.2-7.3-40.9-7.3H3.3l2.3-3.9c.5-.8.9-1.5 1.3-2.1 1.1-1.9 2.3-3.9 3.4-5.8 2.4-4.1 4.9-8.3 7.4-12.4 4.8-8 7.8-16.9 10.8-25.6.8-2.3 1.6-4.7 2.4-7 6.5-18.4 15.9-30 29.5-36.5.8-.4 1.7-1.6 2.2-2.3C70.4 42.8 79.1 36 90.1 32.1c.1 0 .2-.1.2-.1.4-.3.8-.7 1.6-.9 1.1-.3 2-.4 2.7-.4 1.2 0 2.1.4 2.7 1.1.9 1.2.7 2.9.2 5.1-.8 3-1.1 5.9-1.5 9-.3 2.8-.7 5.7-1.3 8.6-.4 1.7-.1 3.1 2.6 4.5 8.2 4.1 14 10.2 17 17.9 2.9 7.2 8 12.7 17.1 18.3 4.8 2.9 9.1 6.7 13.2 10.4l.4.3c1.6 1.4 2.5 2.9 2.5 4.5s-.7 3.3-2.4 4.9c-4.4 4.3-8.8 8.4-12.5 11.8-2.7 2.4-5.7 3.7-8.9 3.7-.5 0-1 0-1.5-.1-6.2-.8-12.9-1.6-21-2.7-1-.1-2.1-.3-3.1-.5s-1.9-.4-2.9-.5c-1.4-.2-2.5-.3-3.5-.3-3.5 0-4.7 1-5.5 7.1-.5 3.4-.9 7-.9 10.5 0 6.5 2.6 12.3 3.9 15.1.8 1.8 1.1 2.5.6 3.3l-.4.7h-.9c-.3.1-.5.1-.8.1z" fill="#393a56"/><path id="XMLID_13_" class="st6" d="M94.6 32.3c2 0 2.2 1.3 1.5 4.4-1.5 5.8-1.4 11.7-2.8 17.6-.6 2.8.5 4.7 3.4 6.2 7.4 3.7 13.2 9.2 16.3 17.1 3.4 8.6 10 14.2 17.7 19 4.8 3 9.1 6.8 13.4 10.5 2.7 2.4 2.6 4.7 0 7.3-4 4-8.2 7.9-12.4 11.7-2.2 2-4.9 3.3-7.9 3.3-.4 0-.9 0-1.4-.1l-21-2.7c-2-.3-4-.8-6-1-1.4-.2-2.6-.3-3.7-.3-4.7 0-6.2 2.1-7 8.4-.5 3.5-.9 7.1-.9 10.7 0 9.7 5.4 17.6 4.6 17.6h-.8C63 162 32 147.5 6.5 147.5H6c1-1.7 1.6-2.7 2.2-3.7 3.6-6.1 7.1-12.2 10.8-18.2 6.2-10.3 9.4-21.7 13.3-32.9C37.6 77.5 45.7 64.4 61 57.1c1.1-.5 2-1.7 2.8-2.7 7.1-9.7 15.5-16.8 26.9-20.8.9-.3.6-.7 1.6-.9.9-.3 1.7-.4 2.3-.4m0-3c-.8 0-1.8.1-3 .4-1 .2-1.6.6-2.1 1-11.2 4-20.2 10.9-28.1 21.8-.3.5-1.2 1.6-1.7 1.8-18.3 8.7-26 25.5-30.2 37.3-.8 2.3-1.6 4.7-2.4 7-3 9-5.9 17.5-10.6 25.3-2.5 4.1-5 8.3-7.3 12.4-1.1 1.9-2.3 3.9-3.4 5.8-.4.7-.8 1.3-1.3 2.2L3.4 146l-2.7 4.6h5.8c12.5 0 26.8 3.7 40.5 7.2 13.8 3.6 28.1 7.3 40.7 7.3h.8c1 0 2-.5 2.5-1.4 1-1.5.4-2.8-.5-4.7-1.2-2.7-3.7-8.3-3.7-14.5 0-3.4.4-7 .9-10.3.8-5.8 1.7-5.8 4-5.8.9 0 1.9.1 3.3.3.9.1 1.8.3 2.8.5 1 .2 2.1.4 3.2.5 8.1 1.1 14.8 1.9 21 2.7.6.1 1.2.1 1.7.1 3.6 0 6.9-1.4 9.9-4.1 3.7-3.4 8.1-7.4 12.5-11.8 2-2 2.9-4 2.9-6.1-.1-2-1.1-3.9-3-5.6l-.4-.3c-4.2-3.7-8.5-7.5-13.4-10.5-8.8-5.4-13.7-10.7-16.5-17.5-3.2-8.1-9.2-14.4-17.8-18.7-2.2-1.1-2.1-1.9-1.9-2.8.7-3 1-5.9 1.4-8.7.4-3.1.7-5.9 1.4-8.8.6-2.3.9-4.6-.5-6.4-.4-1-1.6-1.9-3.7-1.9z" fill="#fff"/></g></g></g></svg>